_Griffith_Gothic-Light_Italic_WebTT.ufo
<glyph name="dollar" format="1">
  <advance width="1120.256"/>
  <unicode hex="0024"/>
  <outline>
    <contour>
      <point x="844" y="1464" type="line"/>
      <point x="943.253731343" y="1444.59701493"/>
      <point x="1101.29850746" y="1341.10447761"/>
      <point x="1161" y="1262" type="qcurve"/>
      <point x="1073" y="1180" type="line"/>
      <point x="1023.0" y="1250.14925373"/>
      <point x="896.343283582" y="1343.34328358"/>
      <point x="815" y="1362" type="qcurve"/>
      <point x="678" y="805" type="line"/>
      <point x="850.388059701" y="714.701492537"/>
      <point x="999.0" y="531.134328358"/>
      <point x="999" y="408" type="qcurve" smooth="yes"/>
      <point x="999.0" y="221.432835821"/>
      <point x="714.47761194" y="-2.0"/>
      <point x="510" y="-2" type="qcurve" smooth="yes"/>
      <point x="481" y="-2" type="line"/>
      <point x="432" y="-195" type="line"/>
      <point x="336" y="-195" type="line"/>
      <point x="387" y="8" type="line"/>
      <point x="267.597014925" y="29.6417910448"/>
      <point x="75.1940298507" y="152.686567164"/>
      <point x="14" y="240" type="qcurve"/>
      <point x="102" y="322" type="line"/>
      <point x="163.194029851" y="236.179104478"/>
      <point x="315.253731343" y="126.910447761"/>
      <point x="416" y="109" type="qcurve"/>
      <point x="573" y="733" type="line"/>
      <point x="431.208955224" y="806.134328358"/>
      <point x="272.0" y="971.134328358"/>
      <point x="272" y="1098" type="qcurve" smooth="yes"/>
      <point x="272.0" y="1271.88059701"/>
      <point x="531.417910448" y="1477.0"/>
      <point x="715" y="1477" type="qcurve" smooth="yes"/>
      <point x="752" y="1477" type="line"/>
      <point x="772" y="1561" type="line"/>
      <point x="868" y="1561" type="line"/>
    </contour>
    <contour>
      <point x="520" y="100" type="line" smooth="yes"/>
      <point x="694.626865672" y="100.0"/>
      <point x="870.0" y="273.119402985"/>
      <point x="870" y="397" type="qcurve" smooth="yes"/>
      <point x="870.0" y="482.820895522"/>
      <point x="771.388059701" y="621.850746269"/>
      <point x="649" y="692" type="qcurve"/>
      <point x="502" y="100" type="line"/>
    </contour>
    <contour>
      <point x="600" y="846" type="qcurve"/>
      <point x="733" y="1374" type="line"/>
      <point x="707" y="1374" type="line" smooth="yes"/>
      <point x="565.955223881" y="1374.0"/>
      <point x="401.0" y="1229.40298507"/>
      <point x="401" y="1110" type="qcurve" smooth="yes"/>
      <point x="401.0" y="1025.67164179"/>
      <point x="491.791044776" y="908.686567164"/>
    </contour>
  </outline>
</glyph>
<glyph name="percent" format="1">
  <advance width="1699.84"/>
  <unicode hex="0025"/>
  <outline>
    <contour>
      <point x="582" y="1489" type="qcurve" smooth="yes"/>
      <point x="691.701492537" y="1489.0"/>
      <point x="862.0" y="1339.49253731"/>
      <point x="862" y="1188" type="qcurve" smooth="yes"/>
      <point x="862.0" y="1014.86567164"/>
      <point x="644.611940299" y="700.0"/>
      <point x="467" y="700" type="qcurve" smooth="yes"/>
      <point x="356.552238806" y="700.0"/>
      <point x="186.0" y="850.253731343"/>
      <point x="186" y="1001" type="qcurve" smooth="yes"/>
      <point x="186.0" y="1174.13432836"/>
      <point x="404.388059701" y="1489.0"/>
    </contour>
    <contour>
      <point x="469" y="793" type="qcurve" smooth="yes"/>
      <point x="598.850746269" y="793.0"/>
      <point x="748.0" y="1057.64179104"/>
      <point x="748" y="1186" type="qcurve" smooth="yes"/>
      <point x="748.0" y="1282.26865672"/>
      <point x="655.611940299" y="1397.0"/>
      <point x="578" y="1397" type="qcurve" smooth="yes"/>
      <point x="449.641791045" y="1397.0"/>
      <point x="301.0" y="1132.35820896"/>
      <point x="301" y="1004" type="qcurve" smooth="yes"/>
      <point x="301.0" y="906.985074627"/>
      <point x="391.388059701" y="793.0"/>
    </contour>
    <contour>
      <point x="1337" y="774" type="qcurve" smooth="yes"/>
      <point x="1447.44776119" y="774.0"/>
      <point x="1618.0" y="624.492537313"/>
      <point x="1618" y="473" type="qcurve" smooth="yes"/>
      <point x="1618.0" y="300.611940299"/>
      <point x="1401.35820896" y="-14.0"/>
      <point x="1223" y="-14" type="qcurve" smooth="yes"/>
      <point x="1112.55223881" y="-14.0"/>
      <point x="942.0" y="135.507462687"/>
      <point x="942" y="287" type="qcurve" smooth="yes"/>
      <point x="942.0" y="459.388059701"/>
      <point x="1160.13432836" y="774.0"/>
    </contour>
    <contour>
      <point x="1227" y="78" type="qcurve" smooth="yes"/>
      <point x="1355.35820896" y="78.0"/>
      <point x="1503.0" y="342.641791045"/>
      <point x="1503" y="471" type="qcurve" smooth="yes"/>
      <point x="1503.0" y="567.268656716"/>
      <point x="1413.35820896" y="682.0"/>
      <point x="1335" y="682" type="qcurve" smooth="yes"/>
      <point x="1205.14925373" y="682.0"/>
      <point x="1059.0" y="417.358208955"/>
      <point x="1059" y="289" type="qcurve" smooth="yes"/>
      <point x="1059.0" y="192.731343284"/>
      <point x="1148.64179104" y="78.0"/>
    </contour>
    <contour>
      <point x="1470" y="1475" type="line"/>
      <point x="1602" y="1475" type="line"/>
      <point x="940" y="719" type="line"/>
      <point x="334" y="0" type="line"/>
      <point x="203" y="0" type="line"/>
      <point x="866" y="756" type="line"/>
    </contour>
  </outline>
</glyph>
<glyph name="parenleft" format="1">
  <advance width="643.072"/>
  <unicode hex="0028"/>
  <outline>
    <contour>
      <point x="698" y="1505" type="qcurve"/>
      <point x="831" y="1505" type="line"/>
      <point x="560.850746269" y="1283.35820896"/>
      <point x="264.0" y="704.462686567"/>
      <point x="264" y="397" type="qcurve" smooth="yes"/>
      <point x="264.0" y="227.597014925"/>
      <point x="327.358208955" y="-45.0"/>
      <point x="399" y="-195" type="qcurve"/>
      <point x="289" y="-195" type="line"/>
      <point x="217.358208955" y="-74.1044776119"/>
      <point x="119.0" y="238.358208955"/>
      <point x="119" y="410" type="qcurve" smooth="yes"/>
      <point x="119.0" y="745.820895522"/>
      <point x="447.253731343" y="1310.97014925"/>
    </contour>
  </outline>
</glyph>
<glyph name="zero" format="1">
  <advance width="1212.416"/>
  <unicode hex="0030"/>
  <outline>
    <contour>
      <point x="1190" y="1022" type="qcurve" smooth="yes"/>
      <point x="1190" y="1018" type="line" smooth="yes"/>
      <point x="1190.0" y="936.656716418"/>
      <point x="1168.1641791" y="767.880597015"/>
      <point x="1151" y="694" type="qcurve" smooth="yes"/>
      <point x="1076.37313433" y="376.089552239"/>
      <point x="728.656716418" y="-25.0"/>
      <point x="510" y="-25" type="qcurve" smooth="yes"/>
      <point x="326.417910448" y="-25.0"/>
      <point x="125.0" y="235.835820896"/>
      <point x="125" y="453" type="qcurve" smooth="yes"/>
      <point x="125" y="457" type="line" smooth="yes"/>
      <point x="125.0" y="537.597014925"/>
      <point x="146.835820896" y="706.865671642"/>
      <point x="164" y="780" type="qcurve" smooth="yes"/>
      <point x="238.626865672" y="1097.91044776"/>
      <point x="586.343283582" y="1499.0"/>
      <point x="805" y="1499" type="qcurve" smooth="yes"/>
      <point x="988.582089552" y="1499.0"/>
      <point x="1190.0" y="1239.1641791"/>
    </contour>
    <contour>
      <point x="995" y="664" type="qcurve" smooth="yes"/>
      <point x="1018.13432836" y="744.597014925"/>
      <point x="1044.0" y="935.671641791"/>
      <point x="1044" y="1020" type="qcurve" smooth="yes"/>
      <point x="1044" y="1024" type="line" smooth="yes"/>
      <point x="1044.0" y="1181.46268657"/>
      <point x="923.358208955" y="1384.0"/>
      <point x="795" y="1384" type="qcurve" smooth="yes"/>
      <point x="639.029850746" y="1384.0"/>
      <point x="388.402985075" y="1057.26865672"/>
      <point x="319" y="811" type="qcurve" smooth="yes"/>
      <point x="296.611940299" y="729.656716418"/>
      <point x="270.0" y="538.582089552"/>
      <point x="270" y="455" type="qcurve" smooth="yes"/>
      <point x="270" y="451" type="line" smooth="yes"/>
      <point x="270.0" y="293.537313433"/>
      <point x="391.641791045" y="90.0"/>
      <point x="520" y="90" type="qcurve" smooth="yes"/>
      <point x="675.970149254" y="90.0"/>
      <point x="926.343283582" y="417.731343284"/>
    </contour>
  </outline>
</glyph>
<glyph name="six" format="1">
  <advance width="1134.592"/>
  <unicode hex="0036"/>
  <outline>
    <contour>
      <point x="696" y="918" type="qcurve" smooth="yes"/>
      <point x="861.671641791" y="918.0"/>
      <point x="1071.0" y="723.805970149"/>
      <point x="1071" y="535" type="qcurve" smooth="yes"/>
      <point x="1071.0" y="308.134328358"/>
      <point x="734.597014925" y="-25.0"/>
      <point x="504" y="-25" type="qcurve" smooth="yes"/>
      <point x="321.910447761" y="-25.0"/>
      <point x="92.0" y="190.970149254"/>
      <point x="92" y="385" type="qcurve" smooth="yes"/>
      <point x="92.0" y="713.358208955"/>
      <point x="543.462686567" y="1291.41791045"/>
      <point x="836" y="1475" type="qcurve"/>
      <point x="1049" y="1475" type="line"/>
      <point x="764.671641791" y="1314.55223881"/>
      <point x="369.626865672" y="914.134328358"/>
      <point x="295" y="741" type="qcurve"/>
      <point x="309" y="741" type="line"/>
      <point x="400.791044776" y="829.805970149"/>
      <point x="584.805970149" y="918.0"/>
    </contour>
    <contour>
      <point x="516" y="82" type="qcurve" smooth="yes"/>
      <point x="682.417910448" y="82.0"/>
      <point x="926.0" y="343.134328358"/>
      <point x="926" y="520" type="qcurve" smooth="yes"/>
      <point x="926.0" y="658.059701493"/>
      <point x="781.328358209" y="811.0"/>
      <point x="647" y="811" type="qcurve" smooth="yes"/>
      <point x="483.567164179" y="811.0"/>
      <point x="229.0" y="563.059701493"/>
      <point x="229" y="375" type="qcurve" smooth="yes"/>
      <point x="229.0" y="242.164179104"/>
      <point x="386.149253731" y="82.0"/>
    </contour>
  </outline>
</glyph>
<glyph name="eight" format="1">
  <advance width="1191.936"/>
  <unicode hex="0038"/>
  <outline>
    <contour>
      <point x="760" y="1499" type="qcurve" smooth="yes"/>
      <point x="958.507462687" y="1499.0"/>
      <point x="1182.0" y="1308.46268657"/>
      <point x="1182" y="1151" type="qcurve" smooth="yes"/>
      <point x="1182.0" y="1001.0"/>
      <point x="969.910447761" y="809.582089552"/>
      <point x="852" y="776" type="qcurve"/>
      <point x="850" y="764" type="line"/>
      <point x="946.268656716" y="717.731343284"/>
      <point x="1077.0" y="553.373134328"/>
      <point x="1077" y="428" type="qcurve" smooth="yes"/>
      <point x="1077.0" y="241.432835821"/>
      <point x="771.597014925" y="-23.0"/>
      <point x="541" y="-23" type="qcurve" smooth="yes"/>
      <point x="326.820895522" y="-23.0"/>
      <point x="80.0" y="194.089552239"/>
      <point x="80" y="362" type="qcurve" smooth="yes"/>
      <point x="80.0" y="538.119402985"/>
      <point x="317.0" y="761.447761194"/>
      <point x="467" y="801" type="qcurve"/>
      <point x="471" y="815" type="line"/>
      <point x="382.194029851" y="865.746268657"/>
      <point x="287.0" y="1004.26865672"/>
      <point x="287" y="1108" type="qcurve" smooth="yes"/>
      <point x="287.0" y="1269.94029851"/>
      <point x="551.791044776" y="1499.0"/>
    </contour>
    <contour>
      <point x="547" y="84" type="qcurve" smooth="yes"/>
      <point x="716.402985075" y="84.0"/>
      <point x="936.0" y="290.746268657"/>
      <point x="936" y="440" type="qcurve" smooth="yes"/>
      <point x="936.0" y="568.358208955"/>
      <point x="761.014925373" y="741.0"/>
      <point x="614" y="741" type="qcurve" smooth="yes"/>
      <point x="453.552238806" y="741.0"/>
      <point x="223.0" y="527.507462687"/>
      <point x="223" y="379" type="qcurve" smooth="yes"/>
      <point x="223.0" y="249.149253731"/>
      <point x="389.537313433" y="84.0"/>
    </contour>
    <contour>
      <point x="700" y="827" type="qcurve" smooth="yes"/>
      <point x="851.492537313" y="827.0"/>
      <point x="1038.0" y="1023.62686567"/>
      <point x="1038" y="1149" type="qcurve" smooth="yes"/>
      <point x="1038.0" y="1255.71641791"/>
      <point x="889.313432836" y="1393.0"/>
      <point x="752" y="1393" type="qcurve" smooth="yes"/>
      <point x="604.985074627" y="1393.0"/>
      <point x="424.0" y="1221.88059701"/>
      <point x="424" y="1098" type="qcurve" smooth="yes"/>
      <point x="424.0" y="977.104477612"/>
      <point x="581.343283582" y="827.0"/>
    </contour>
  </outline>
</glyph>
<glyph name="nine" format="1">
  <advance width="1134.592"/>
  <unicode hex="0039"/>
  <outline>
    <contour>
      <point x="733" y="1499" type="qcurve" smooth="yes"/>
      <point x="915.089552239" y="1499.0"/>
      <point x="1145.0" y="1284.02985075"/>
      <point x="1145" y="1090" type="qcurve" smooth="yes"/>
      <point x="1145.0" y="760.895522388"/>
      <point x="693.537313433" y="183.582089552"/>
      <point x="401" y="0" type="qcurve"/>
      <point x="188" y="0" type="line"/>
      <point x="472.328358209" y="160.447761194"/>
      <point x="867.373134328" y="560.611940299"/>
      <point x="942" y="733" type="qcurve"/>
      <point x="928" y="733" type="line"/>
      <point x="836.208955224" y="644.194029851"/>
      <point x="654.194029851" y="557.0"/>
      <point x="543" y="557" type="qcurve" smooth="yes"/>
      <point x="375.835820896" y="557.0"/>
      <point x="168.0" y="750.447761194"/>
      <point x="168" y="940" type="qcurve" smooth="yes"/>
      <point x="168.0" y="1166.11940299"/>
      <point x="503.895522388" y="1499.0"/>
    </contour>
    <contour>
      <point x="590" y="664" type="qcurve" smooth="yes"/>
      <point x="753.432835821" y="664.0"/>
      <point x="1010.0" y="911.940298507"/>
      <point x="1010" y="1100" type="qcurve" smooth="yes"/>
      <point x="1010.0" y="1232.8358209"/>
      <point x="852.343283582" y="1393.0"/>
      <point x="721" y="1393" type="qcurve" smooth="yes"/>
      <point x="556.074626866" y="1393.0"/>
      <point x="311.0" y="1131.6119403"/>
      <point x="311" y="954" type="qcurve" smooth="yes"/>
      <point x="311.0" y="816.686567164"/>
      <point x="455.671641791" y="664.0"/>
    </contour>
  </outline>
</glyph>
<glyph name="semicolon" format="1">
  <advance width="417.792"/>
  <unicode hex="003B"/>
  <outline>
    <contour>
      <point x="319" y="1067" type="qcurve" smooth="yes"/>
      <point x="362.28358209" y="1067.0"/>
      <point x="420.0" y="1009.53731343"/>
      <point x="420" y="967" type="qcurve" smooth="yes"/>
      <point x="420.0" y="922.223880597"/>
      <point x="362.28358209" y="864.0"/>
      <point x="319" y="864" type="qcurve" smooth="yes"/>
      <point x="274.970149254" y="864.0"/>
      <point x="217.0" y="922.223880597"/>
      <point x="217" y="967" type="qcurve" smooth="yes"/>
      <point x="217.0" y="1009.53731343"/>
      <point x="274.970149254" y="1067.0"/>
    </contour>
    <contour>
      <point x="51" y="197" type="line"/>
      <point x="217" y="197" type="line"/>
      <point x="-35" y="-244" type="line"/>
      <point x="-125" y="-244" type="line"/>
    </contour>
  </outline>
</glyph>
<glyph name="equal" format="1">
  <advance width="1228.8"/>
  <unicode hex="003D"/>
  <outline>
    <contour>
      <point x="1157" y="547" type="line"/>
      <point x="1157" y="420" type="line"/>
      <point x="172" y="420" type="line"/>
      <point x="172" y="547" type="line"/>
    </contour>
    <contour>
      <point x="1157" y="1034" type="line"/>
      <point x="1157" y="907" type="line"/>
      <point x="172" y="907" type="line"/>
      <point x="172" y="1034" type="line"/>
    </contour>
  </outline>
</glyph>
<glyph name="at" format="1">
  <advance width="2017.28"/>
  <unicode hex="0040"/>
  <outline>
    <contour>
      <point x="1065" y="1499" type="qcurve" smooth="yes"/>
      <point x="1429.92537313" y="1499.0"/>
      <point x="1933.0" y="1050.65671642"/>
      <point x="1933" y="682" type="qcurve" smooth="yes"/>
      <point x="1933.0" y="409.611940299"/>
      <point x="1643.10447761" y="63.0"/>
      <point x="1464" y="63" type="qcurve" smooth="yes"/>
      <point x="1345.34328358" y="63.0"/>
      <point x="1222.20895522" y="200.313432836"/>
      <point x="1214" y="313" type="qcurve"/>
      <point x="1204" y="313" type="line"/>
      <point x="1133.85074627" y="195.835820896"/>
      <point x="959.28358209" y="63.0"/>
      <point x="866" y="63" type="qcurve" smooth="yes"/>
      <point x="747.343283582" y="63.0"/>
      <point x="600.0" y="250.059701493"/>
      <point x="600" y="412" type="qcurve" smooth="yes"/>
      <point x="600.0" y="659.014925373"/>
      <point x="827.119402985" y="1053.0"/>
      <point x="1001" y="1053" type="qcurve" smooth="yes"/>
      <point x="1111.44776119" y="1053.0"/>
      <point x="1235.91044776" y="910.731343284"/>
      <point x="1268" y="807" type="qcurve"/>
      <point x="1278" y="805" type="line"/>
      <point x="1319" y="1049" type="line"/>
      <point x="1440" y="1010" type="line"/>
      <point x="1331" y="395" type="line" smooth="yes"/>
      <point x="1313.08955224" y="288.28358209"/>
      <point x="1387.26865672" y="131.0"/>
      <point x="1491" y="131" type="qcurve" smooth="yes"/>
      <point x="1626.82089552" y="131.0"/>
      <point x="1858.0" y="442.179104478"/>
      <point x="1858" y="678" type="qcurve" smooth="yes"/>
      <point x="1858.0" y="1025.01492537"/>
      <point x="1409.0" y="1434.0"/>
      <point x="1059" y="1434" type="qcurve" smooth="yes"/>
      <point x="694.820895522" y="1434.0"/>
      <point x="193.0" y="914.402985075"/>
      <point x="193" y="545" type="qcurve" smooth="yes"/>
      <point x="193.0" y="155.447761194"/>
      <point x="659.402985075" y="-328.0"/>
      <point x="1040" y="-328" type="qcurve" smooth="yes"/>
      <point x="1226.56716418" y="-328.0"/>
      <point x="1512.43283582" y="-253.373134328"/>
      <point x="1649" y="-178" type="qcurve"/>
      <point x="1681" y="-233" type="line"/>
      <point x="1539.20895522" y="-309.865671642"/>
      <point x="1235.25373134" y="-393.0"/>
      <point x="1036" y="-393" type="qcurve" smooth="yes"/>
      <point x="623.313432836" y="-393.0"/>
      <point x="115.0" y="122.850746269"/>
      <point x="115" y="543" type="qcurve" smooth="yes"/>
      <point x="115.0" y="945.985074627"/>
      <point x="676.940298507" y="1499.0"/>
    </contour>
    <contour>
      <point x="913" y="152" type="qcurve" smooth="yes"/>
      <point x="1038.37313433" y="152.0"/>
      <point x="1247.0" y="473.626865672"/>
      <point x="1247" y="649" type="qcurve" smooth="yes"/>
      <point x="1247.0" y="762.432835821"/>
      <point x="1131.25373134" y="956.0"/>
      <point x="1032" y="956" type="qcurve" smooth="yes"/>
      <point x="902.149253731" y="956.0"/>
      <point x="727.0" y="646.626865672"/>
      <point x="727" y="422" type="qcurve" smooth="yes"/>
      <point x="727.0" y="299.611940299"/>
      <point x="823.447761194" y="152.0"/>
    </contour>
  </outline>
</glyph>
<glyph name="D" format="1">
  <advance width="1263.616"/>
  <unicode hex="0044"/>
  <outline>
    <contour>
      <point x="1237" y="952" type="qcurve" smooth="yes"/>
      <point x="1237" y="946" type="line" smooth="yes"/>
      <point x="1237.0" y="880.328358209"/>
      <point x="1223.67164179" y="762.686567164"/>
      <point x="1208" y="700" type="qcurve" smooth="yes"/>
      <point x="1131.88059701" y="368.656716418"/>
      <point x="684.28358209" y="0.0"/>
      <point x="391" y="0" type="qcurve" smooth="yes"/>
      <point x="39" y="0" type="line"/>
      <point x="408" y="1475" type="line"/>
      <point x="692" y="1475" type="line" smooth="yes"/>
      <point x="930.805970149" y="1475.0"/>
      <point x="1237.0" y="1218.41791045"/>
    </contour>
    <contour>
      <point x="1055" y="678" type="qcurve" smooth="yes"/>
      <point x="1069.92537313" y="736.208955224"/>
      <point x="1087.0" y="873.820895522"/>
      <point x="1087" y="938" type="qcurve" smooth="yes"/>
      <point x="1087" y="944" type="line" smooth="yes"/>
      <point x="1087.0" y="1150.71641791"/>
      <point x="860.089552239" y="1360.0"/>
      <point x="678" y="1360" type="qcurve" smooth="yes"/>
      <point x="522" y="1360" type="line"/>
      <point x="213" y="115" type="line"/>
      <point x="401" y="115" type="line" smooth="yes"/>
      <point x="625.626865672" y="115.0"/>
      <point x="984.850746269" y="412.328358209"/>
    </contour>
  </outline>
</glyph>
<glyph name="K" format="1">
  <advance width="1202.176"/>
  <unicode hex="004B"/>
  <outline>
    <contour>
      <point x="1227" y="1475" type="line"/>
      <point x="1407" y="1475" type="line"/>
      <point x="612" y="793" type="line"/>
      <point x="1069" y="0" type="line"/>
      <point x="907" y="0" type="line"/>
      <point x="451" y="801" type="line"/>
      <point x="453" y="807" type="line"/>
    </contour>
    <contour>
      <point x="408" y="1475" type="line"/>
      <point x="553" y="1475" type="line"/>
      <point x="186" y="0" type="line"/>
      <point x="39" y="0" type="line"/>
    </contour>
  </outline>
</glyph>
<glyph name="O" format="1">
  <advance width="1255.424"/>
  <unicode hex="004F"/>
  <outline>
    <contour>
      <point x="1235" y="1006" type="qcurve" smooth="yes"/>
      <point x="1235" y="999" type="line" smooth="yes"/>
      <point x="1235.0" y="925.865671642"/>
      <point x="1214.65671642" y="773.850746269"/>
      <point x="1196" y="694" type="qcurve" smooth="yes"/>
      <point x="1131.82089552" y="403.701492537"/>
      <point x="787.507462687" y="-25.0"/>
      <point x="539" y="-25" type="qcurve" smooth="yes"/>
      <point x="342.731343284" y="-25.0"/>
      <point x="125.0" y="242.880597015"/>
      <point x="125" y="469" type="qcurve" smooth="yes"/>
      <point x="125" y="475" type="line" smooth="yes"/>
      <point x="125.0" y="548.134328358"/>
      <point x="143.343283582" y="700.895522388"/>
      <point x="162" y="780" type="qcurve" smooth="yes"/>
      <point x="226.179104478" y="1070.29850746"/>
      <point x="571.746268657" y="1499.0"/>
      <point x="821" y="1499" type="qcurve" smooth="yes"/>
      <point x="1016.52238806" y="1499.0"/>
      <point x="1235.0" y="1232.11940299"/>
    </contour>
    <contour>
      <point x="1038" y="657" type="qcurve" smooth="yes"/>
      <point x="1062.62686567" y="747.298507463"/>
      <point x="1087.0" y="924.880597015"/>
      <point x="1087" y="1001" type="qcurve" smooth="yes"/>
      <point x="1087" y="1006" type="line" smooth="yes"/>
      <point x="1087.0" y="1161.2238806"/>
      <point x="954.52238806" y="1384.0"/>
      <point x="809" y="1384" type="qcurve" smooth="yes"/>
      <point x="639.597014925" y="1384.0"/>
      <point x="382.447761194" y="1044.6119403"/>
      <point x="322" y="817" type="qcurve" smooth="yes"/>
      <point x="297.373134328" y="726.701492537"/>
      <point x="270.0" y="549.119402985"/>
      <point x="270" y="473" type="qcurve" smooth="yes"/>
      <point x="270" y="469" type="line" smooth="yes"/>
      <point x="270.0" y="313.029850746"/>
      <point x="405.47761194" y="90.0"/>
      <point x="551" y="90" type="qcurve" smooth="yes"/>
      <point x="720.402985075" y="90.0"/>
      <point x="976.805970149" y="429.388059701"/>
    </contour>
  </outline>
</glyph>
<glyph name="P" format="1">
  <advance width="1161.216"/>
  <unicode hex="0050"/>
  <outline>
    <contour>
      <point x="791" y="1475" type="line" smooth="yes"/>
      <point x="995.47761194" y="1475.0"/>
      <point x="1219.0" y="1296.14925373"/>
      <point x="1219" y="1126" type="qcurve" smooth="yes"/>
      <point x="1219.0" y="901.373134328"/>
      <point x="881.208955224" y="627.0"/>
      <point x="623" y="627" type="qcurve" smooth="yes"/>
      <point x="342" y="627" type="line"/>
      <point x="186" y="0" type="line"/>
      <point x="39" y="0" type="line"/>
      <point x="408" y="1475" type="line"/>
    </contour>
    <contour>
      <point x="614" y="739" type="line" smooth="yes"/>
      <point x="819.223880597" y="739.0"/>
      <point x="1071.0" y="940.626865672"/>
      <point x="1071" y="1116" type="qcurve" smooth="yes"/>
      <point x="1071.0" y="1233.91044776"/>
      <point x="921.970149254" y="1364.0"/>
      <point x="766" y="1364" type="qcurve" smooth="yes"/>
      <point x="522" y="1364" type="line"/>
      <point x="367" y="739" type="line"/>
    </contour>
  </outline>
</glyph>
<glyph name="Q" format="1">
  <advance width="1255.424"/>
  <unicode hex="0051"/>
  <outline>
    <contour>
      <point x="1235" y="1006" type="qcurve" smooth="yes"/>
      <point x="1235" y="999" type="line" smooth="yes"/>
      <point x="1235.0" y="925.865671642"/>
      <point x="1214.65671642" y="773.850746269"/>
      <point x="1196" y="694" type="qcurve" smooth="yes"/>
      <point x="1156.44776119" y="514.149253731"/>
      <point x="987.910447761" y="199.76119403"/>
      <point x="870" y="102" type="qcurve"/>
      <point x="924" y="-10" type="line" smooth="yes"/>
      <point x="949.373134328" y="-65.223880597"/>
      <point x="1017.26865672" y="-111.0"/>
      <point x="1071" y="-111" type="qcurve" smooth="yes"/>
      <point x="1092.64179104" y="-111.0"/>
      <point x="1133.35820896" y="-101.970149254"/>
      <point x="1155" y="-96" type="qcurve"/>
      <point x="1128" y="-199" type="line"/>
      <point x="1107.10447761" y="-204.970149254"/>
      <point x="1060.11940299" y="-213.0"/>
      <point x="1034" y="-213" type="qcurve" smooth="yes"/>
      <point x="959.373134328" y="-213.0"/>
      <point x="856.074626866" y="-152.089552239"/>
      <point x="821" y="-70" type="qcurve" smooth="yes"/>
      <point x="776" y="37" type="line"/>
      <point x="720.776119403" y="7.89552238806"/>
      <point x="601.686567164" y="-25.0"/>
      <point x="539" y="-25" type="qcurve" smooth="yes"/>
      <point x="342.731343284" y="-25.0"/>
      <point x="125.0" y="242.880597015"/>
      <point x="125" y="469" type="qcurve" smooth="yes"/>
      <point x="125" y="475" type="line" smooth="yes"/>
      <point x="125.0" y="548.134328358"/>
      <point x="143.343283582" y="700.895522388"/>
      <point x="162" y="780" type="qcurve" smooth="yes"/>
      <point x="226.179104478" y="1070.29850746"/>
      <point x="571.746268657" y="1499.0"/>
      <point x="821" y="1499" type="qcurve" smooth="yes"/>
      <point x="1016.52238806" y="1499.0"/>
      <point x="1235.0" y="1232.11940299"/>
    </contour>
    <contour>
      <point x="1036" y="653" type="qcurve" smooth="yes"/>
      <point x="1060.62686567" y="743.298507463"/>
      <point x="1087.0" y="924.880597015"/>
      <point x="1087" y="1001" type="qcurve" smooth="yes"/>
      <point x="1087" y="1006" type="line" smooth="yes"/>
      <point x="1087.0" y="1161.2238806"/>
      <point x="954.52238806" y="1384.0"/>
      <point x="809" y="1384" type="qcurve" smooth="yes"/>
      <point x="639.597014925" y="1384.0"/>
      <point x="382.447761194" y="1041.11940299"/>
      <point x="322" y="815" type="qcurve" smooth="yes"/>
      <point x="297.373134328" y="724.701492537"/>
      <point x="268.0" y="543.119402985"/>
      <point x="268" y="467" type="qcurve" smooth="yes"/>
      <point x="268" y="463" type="line" smooth="yes"/>
      <point x="268.0" y="305.537313433"/>
      <point x="403.47761194" y="84.0"/>
      <point x="549" y="84" type="qcurve" smooth="yes"/>
      <point x="600.492537313" y="84.0"/>
      <point x="694.462686567" y="113.895522388"/>
      <point x="737" y="143" type="qcurve"/>
      <point x="627" y="401" type="line"/>
      <point x="702" y="440" type="line"/>
      <point x="813" y="207" type="line"/>
      <point x="889.119402985" y="286.104477612"/>
      <point x="999.432835821" y="520.164179104"/>
    </contour>
  </outline>
</glyph>
<glyph name="S" format="1">
  <advance width="1144.832"/>
  <unicode hex="0053"/>
  <outline>
    <contour>
      <point x="729" y="1499" type="qcurve" smooth="yes"/>
      <point x="906.611940299" y="1499.0"/>
      <point x="1130.43283582" y="1329.25373134"/>
      <point x="1167" y="1180" type="qcurve"/>
      <point x="1047" y="1120" type="line"/>
      <point x="1012.67164179" y="1243.88059701"/>
      <point x="857.805970149" y="1384.0"/>
      <point x="719" y="1384" type="qcurve" smooth="yes"/>
      <point x="583.179104478" y="1384.0"/>
      <point x="428.0" y="1229.49253731"/>
      <point x="428" y="1128" type="qcurve" smooth="yes"/>
      <point x="428.0" y="1035.46268657"/>
      <point x="537.014925373" y="902.850746269"/>
      <point x="690" y="823" type="qcurve" smooth="yes"/>
      <point x="866.119402985" y="729.71641791"/>
      <point x="1012.0" y="545.820895522"/>
      <point x="1012" y="410" type="qcurve" smooth="yes"/>
      <point x="1012.0" y="212.23880597"/>
      <point x="726.268656716" y="-25.0"/>
      <point x="530" y="-25" type="qcurve" smooth="yes"/>
      <point x="322.537313433" y="-25.0"/>
      <point x="63.5970149254" y="172.119402985"/>
      <point x="33" y="346" type="qcurve"/>
      <point x="154" y="406" type="line"/>
      <point x="176.388059701" y="250.029850746"/>
      <point x="380.552238806" y="90.0"/>
      <point x="541" y="90" type="qcurve" smooth="yes"/>
      <point x="693.23880597" y="90.0"/>
      <point x="868.0" y="269.119402985"/>
      <point x="868" y="393" type="qcurve" smooth="yes"/>
      <point x="868.0" y="486.28358209"/>
      <point x="758.985074627" y="625.656716418"/>
      <point x="606" y="707" type="qcurve" smooth="yes"/>
      <point x="445.552238806" y="790.582089552"/>
      <point x="285.0" y="970.208955224"/>
      <point x="285" y="1112" type="qcurve" smooth="yes"/>
      <point x="285.0" y="1278.41791045"/>
      <point x="540.940298507" y="1499.0"/>
    </contour>
  </outline>
</glyph>
<glyph name="T" format="1">
  <advance width="1140.736"/>
  <unicode hex="0054"/>
  <outline>
    <contour>
      <point x="274" y="1475" type="line"/>
      <point x="1335" y="1475" type="line"/>
      <point x="1305" y="1354" type="line"/>
      <point x="848" y="1354" type="line"/>
      <point x="512" y="0" type="line"/>
      <point x="365" y="0" type="line"/>
      <point x="702" y="1354" type="line"/>
      <point x="244" y="1354" type="line"/>
    </contour>
  </outline>
</glyph>
<glyph name="X" format="1">
  <advance width="1265.664"/>
  <unicode hex="0058"/>
  <outline>
    <contour>
      <point x="1249" y="1475" type="line"/>
      <point x="1409" y="1475" type="line"/>
      <point x="766" y="758" type="line"/>
      <point x="1073" y="0" type="line"/>
      <point x="918" y="0" type="line"/>
      <point x="664" y="651" type="line"/>
      <point x="88" y="0" type="line"/>
      <point x="-72" y="0" type="line"/>
      <point x="616" y="764" type="line"/>
      <point x="328" y="1475" type="line"/>
      <point x="483" y="1475" type="line"/>
      <point x="717" y="868" type="line"/>
    </contour>
  </outline>
</glyph>
<glyph name="Z" format="1">
  <advance width="1112.064"/>
  <unicode hex="005A"/>
  <outline>
    <contour>
      <point x="350" y="1475" type="line"/>
      <point x="1274" y="1475" type="line"/>
      <point x="1247" y="1374" type="line"/>
      <point x="137" y="117" type="line"/>
      <point x="934" y="117" type="line"/>
      <point x="905" y="0" type="line"/>
      <point x="-57" y="0" type="line"/>
      <point x="-33" y="100" type="line"/>
      <point x="1077" y="1358" type="line"/>
      <point x="322" y="1358" type="line"/>
    </contour>
  </outline>
</glyph>
<glyph name="bracketright" format="1">
  <advance width="694.272"/>
  <unicode hex="005D"/>
  <outline>
    <contour>
      <point x="289" y="1475" type="line"/>
      <point x="793" y="1491" type="line"/>
      <point x="379" y="-180" type="line"/>
      <point x="-121" y="-164" type="line"/>
      <point x="-102" y="-84" type="line"/>
      <point x="266" y="-98" type="line"/>
      <point x="639" y="1409" type="line"/>
      <point x="268" y="1395" type="line"/>
    </contour>
  </outline>
</glyph>
<glyph name="asciicircum" format="1">
  <advance width="1126.4"/>
  <unicode hex="005E"/>
  <outline>
    <contour>
      <point x="866" y="1485" type="line"/>
      <point x="1094" y="834" type="line"/>
      <point x="1004" y="834" type="line"/>
      <point x="768" y="1354" type="line"/>
      <point x="276" y="834" type="line"/>
      <point x="174" y="834" type="line"/>
      <point x="727" y="1485" type="line"/>
    </contour>
  </outline>
</glyph>
<glyph name="underscore" format="1">
  <advance width="1024.0"/>
  <unicode hex="005F"/>
  <outline>
    <contour>
      <point x="-162" y="-92" type="line"/>
      <point x="874" y="-92" type="line"/>
      <point x="854" y="-176" type="line"/>
      <point x="-182" y="-176" type="line"/>
    </contour>
  </outline>
</glyph>
<glyph name="grave" format="1">
  <advance width="1024.0"/>
  <unicode hex="0060"/>
  <outline>
    <contour>
      <point x="719" y="1522" type="line"/>
      <point x="842" y="1212" type="line"/>
      <point x="758" y="1212" type="line"/>
      <point x="545" y="1522" type="line"/>
    </contour>
  </outline>
</glyph>
<glyph name="c" format="1">
  <advance width="901.12"/>
  <unicode hex="0063"/>
  <outline>
    <contour>
      <point x="602" y="1079" type="qcurve" smooth="yes"/>
      <point x="737.820895522" y="1079.0"/>
      <point x="877.835820896" y="921.865671642"/>
      <point x="895" y="795" type="qcurve"/>
      <point x="772" y="768" type="line"/>
      <point x="758.567164179" y="867.253731343"/>
      <point x="676.805970149" y="981.0"/>
      <point x="588" y="981" type="qcurve" smooth="yes"/>
      <point x="461.134328358" y="981.0"/>
      <point x="280.029850746" y="748.417910448"/>
      <point x="236" y="582" type="qcurve" smooth="yes"/>
      <point x="218.835820896" y="519.313432836"/>
      <point x="201.0" y="400.71641791"/>
      <point x="201" y="344" type="qcurve" smooth="yes"/>
      <point x="201" y="340" type="line" smooth="yes"/>
      <point x="201.0" y="207.164179104"/>
      <point x="317.701492537" y="76.0"/>
      <point x="408" y="76" type="qcurve" smooth="yes"/>
      <point x="487.104477612" y="76.0"/>
      <point x="610.328358209" y="176.686567164"/>
      <point x="676" y="264" type="qcurve"/>
      <point x="776" y="213" type="line"/>
      <point x="699.880597015" y="104.791044776"/>
      <point x="514.402985075" y="-20.0"/>
      <point x="395" y="-20" type="qcurve" smooth="yes"/>
      <point x="256.194029851" y="-20.0"/>
      <point x="68.0" y="166.388059701"/>
      <point x="68" y="344" type="qcurve" smooth="yes"/>
      <point x="68" y="348" type="line" smooth="yes"/>
      <point x="68.0" y="401.731343284"/>
      <point x="82.5671641791" y="519.029850746"/>
      <point x="96" y="575" type="qcurve" smooth="yes"/>
      <point x="148.23880597" y="778.731343284"/>
      <point x="404.985074627" y="1079.0"/>
    </contour>
  </outline>
</glyph>
<glyph name="f" format="1">
  <advance width="663.552"/>
  <unicode hex="0066"/>
  <outline>
    <contour>
      <point x="743" y="1554" type="qcurve" smooth="yes"/>
      <point x="802.701492537" y="1554.0"/>
      <point x="905.432835821" y="1530.1641791"/>
      <point x="942" y="1513" type="qcurve"/>
      <point x="913" y="1407" type="line"/>
      <point x="882.402985075" y="1425.65671642"/>
      <point x="797.208955224" y="1456.0"/>
      <point x="739" y="1456" type="qcurve" smooth="yes"/>
      <point x="676.313432836" y="1456.0"/>
      <point x="586.134328358" y="1374.7761194"/>
      <point x="563" y="1280" type="qcurve" smooth="yes"/>
      <point x="506" y="1049" type="line"/>
      <point x="770" y="1049" type="line"/>
      <point x="745" y="950" type="line"/>
      <point x="481" y="950" type="line"/>
      <point x="152" y="-385" type="line"/>
      <point x="14" y="-385" type="line"/>
      <point x="348" y="950" type="line"/>
      <point x="137" y="950" type="line"/>
      <point x="162" y="1049" type="line"/>
      <point x="373" y="1049" type="line"/>
      <point x="432" y="1290" type="line" smooth="yes"/>
      <point x="465.582089552" y="1429.55223881"/>
      <point x="621.358208955" y="1554.0"/>
    </contour>
  </outline>
</glyph>
<glyph name="g" format="1">
  <advance width="1042.432"/>
  <unicode hex="0067"/>
  <outline>
    <contour>
      <point x="899" y="1077" type="line"/>
      <point x="1024" y="1030" type="line"/>
      <point x="793" y="96" type="line" smooth="yes"/>
      <point x="730.313432836" y="-157.731343284"/>
      <point x="483.104477612" y="-389.0"/>
      <point x="254" y="-389" type="qcurve" smooth="yes"/>
      <point x="165.194029851" y="-389.0"/>
      <point x="21.7462686567" y="-359.641791045"/>
      <point x="-29" y="-338" type="qcurve"/>
      <point x="0" y="-221" type="line"/>
      <point x="47" y="-221" type="line"/>
      <point x="68.6417910448" y="-251.597014925"/>
      <point x="173.253731343" y="-305.0"/>
      <point x="274" y="-305" type="qcurve" smooth="yes"/>
      <point x="424.0" y="-305.0"/>
      <point x="600.970149254" y="-123.865671642"/>
      <point x="645" y="53" type="qcurve" smooth="yes"/>
      <point x="700" y="274" type="line"/>
      <point x="690" y="274" type="line"/>
      <point x="564.626865672" y="110.567164179"/>
      <point x="388.820895522" y="-20.0"/>
      <point x="303" y="-20" type="qcurve" smooth="yes"/>
      <point x="179.119402985" y="-20.0"/>
      <point x="66.0" y="172.194029851"/>
      <point x="66" y="311" type="qcurve" smooth="yes"/>
      <point x="66" y="315" type="line" smooth="yes"/>
      <point x="66.0" y="631.417910448"/>
      <point x="375.865671642" y="1077.0"/>
      <point x="549" y="1077" type="qcurve" smooth="yes"/>
      <point x="651.23880597" y="1077.0"/>
      <point x="768.044776119" y="955.358208955"/>
      <point x="827" y="827" type="qcurve"/>
      <point x="840" y="827" type="line"/>
    </contour>
    <contour>
      <point x="367" y="80" type="qcurve" smooth="yes"/>
      <point x="498.343283582" y="80.0"/>
      <point x="797.0" y="531.402985075"/>
      <point x="797" y="662" type="qcurve" smooth="yes"/>
      <point x="797.0" y="782.149253731"/>
      <point x="669.044776119" y="983.0"/>
      <point x="578" y="983" type="qcurve" smooth="yes"/>
      <point x="441.432835821" y="983.0"/>
      <point x="203.0" y="583.253731343"/>
      <point x="203" y="334" type="qcurve" smooth="yes"/>
      <point x="203.0" y="228.776119403"/>
      <point x="270.731343284" y="80.0"/>
    </contour>
  </outline>
</glyph>
<glyph name="j" format="1">
  <advance width="458.752"/>
  <unicode hex="006A"/>
  <outline>
    <contour>
      <point x="293" y="1059" type="line"/>
      <point x="430" y="1059" type="line"/>
      <point x="123" y="-170" type="line" smooth="yes"/>
      <point x="90.9104477612" y="-295.373134328"/>
      <point x="-50.0" y="-389.0"/>
      <point x="-150" y="-389" type="qcurve" smooth="yes"/>
      <point x="-194.029850746" y="-389.0"/>
      <point x="-267.417910448" y="-372.179104478"/>
      <point x="-301" y="-358" type="qcurve"/>
      <point x="-276" y="-260" type="line"/>
      <point x="-249.134328358" y="-275.671641791"/>
      <point x="-192.597014925" y="-291.0"/>
      <point x="-162" y="-291" type="qcurve" smooth="yes"/>
      <point x="-97.8208955224" y="-291.0"/>
      <point x="-26.6567164179" y="-223.134328358"/>
      <point x="-8" y="-150" type="qcurve" smooth="yes"/>
    </contour>
    <contour>
      <point x="383" y="1479" type="line"/>
      <point x="549" y="1479" type="line"/>
      <point x="506" y="1305" type="line"/>
      <point x="340" y="1305" type="line"/>
    </contour>
  </outline>
</glyph>
<glyph name="k" format="1">
  <advance width="931.84"/>
  <unicode hex="006B"/>
  <outline>
    <contour>
      <point x="870" y="1059" type="line"/>
      <point x="1030" y="1059" type="line"/>
      <point x="463" y="535" type="line"/>
      <point x="782" y="0" type="line"/>
      <point x="631" y="0" type="line"/>
      <point x="322" y="535" type="line"/>
      <point x="322" y="547" type="line"/>
    </contour>
    <contour>
      <point x="387" y="1511" type="line"/>
      <point x="535" y="1559" type="line"/>
      <point x="147" y="0" type="line"/>
      <point x="10" y="0" type="line"/>
    </contour>
  </outline>
</glyph>
<glyph name="m" format="1">
  <advance width="1583.104"/>
  <unicode hex="006D"/>
  <outline>
    <contour>
      <point x="1339" y="1069" type="qcurve" smooth="yes"/>
      <point x="1432.28358209" y="1069.0"/>
      <point x="1524.0" y="969.089552239"/>
      <point x="1524" y="887" type="qcurve" smooth="yes"/>
      <point x="1524.0" y="859.388059701"/>
      <point x="1514.70149254" y="787.074626866"/>
      <point x="1505" y="752" type="qcurve" smooth="yes"/>
      <point x="1319" y="0" type="line"/>
      <point x="1182" y="0" type="line"/>
      <point x="1364" y="727" type="line" smooth="yes"/>
      <point x="1371.46268657" y="757.597014925"/>
      <point x="1380.0" y="819.373134328"/>
      <point x="1380" y="844" type="qcurve" smooth="yes"/>
      <point x="1380.0" y="899.223880597"/>
      <point x="1327.19402985" y="965.0"/>
      <point x="1266" y="965" type="qcurve" smooth="yes"/>
      <point x="1197.34328358" y="965.0"/>
      <point x="1014.40298507" y="818.432835821"/>
      <point x="895" y="655" type="qcurve"/>
      <point x="733" y="0" type="line"/>
      <point x="596" y="0" type="line"/>
      <point x="778" y="727" type="line" smooth="yes"/>
      <point x="785.462686567" y="757.597014925"/>
      <point x="795.0" y="819.373134328"/>
      <point x="795" y="844" type="qcurve" smooth="yes"/>
      <point x="795.0" y="899.223880597"/>
      <point x="741.194029851" y="965.0"/>
      <point x="680" y="965" type="qcurve" smooth="yes"/>
      <point x="611.343283582" y="965.0"/>
      <point x="428.402985075" y="816.940298507"/>
      <point x="309" y="655" type="qcurve"/>
      <point x="147" y="0" type="line"/>
      <point x="10" y="0" type="line"/>
      <point x="268" y="1030" type="line"/>
      <point x="414" y="1077" type="line"/>
      <point x="340" y="780" type="line"/>
      <point x="352" y="780" type="line"/>
      <point x="462.447761194" y="918.059701493"/>
      <point x="646.537313433" y="1069.0"/>
      <point x="754" y="1069" type="qcurve" smooth="yes"/>
      <point x="847.28358209" y="1069.0"/>
      <point x="938.0" y="969.089552239"/>
      <point x="938" y="887" type="qcurve" smooth="yes"/>
      <point x="938.0" y="865.358208955"/>
      <point x="931.462686567" y="809.104477612"/>
      <point x="924" y="780" type="qcurve"/>
      <point x="938" y="780" type="line"/>
      <point x="1047.70149254" y="918.059701493"/>
      <point x="1232.28358209" y="1069.0"/>
    </contour>
  </outline>
</glyph>
<glyph name="o" format="1">
  <advance width="991.232"/>
  <unicode hex="006F"/>
  <outline>
    <contour>
      <point x="924" y="713" type="qcurve" smooth="yes"/>
      <point x="924" y="709" type="line" smooth="yes"/>
      <point x="924.0" y="658.253731343"/>
      <point x="910.432835821" y="546.47761194"/>
      <point x="897" y="492" type="qcurve" smooth="yes"/>
      <point x="846.253731343" y="285.28358209"/>
      <point x="585.537313433" y="-20.0"/>
      <point x="393" y="-20" type="qcurve" smooth="yes"/>
      <point x="249.71641791" y="-20.0"/>
      <point x="68.0" y="166.388059701"/>
      <point x="68" y="344" type="qcurve" smooth="yes"/>
      <point x="68" y="348" type="line" smooth="yes"/>
      <point x="68.0" y="400.23880597"/>
      <point x="80.5671641791" y="512.52238806"/>
      <point x="94" y="567" type="qcurve" smooth="yes"/>
      <point x="144.746268657" y="773.71641791"/>
      <point x="405.462686567" y="1079.0"/>
      <point x="598" y="1079" type="qcurve" smooth="yes"/>
      <point x="742.029850746" y="1079.0"/>
      <point x="924.0" y="891.358208955"/>
    </contour>
    <contour>
      <point x="756" y="479" type="qcurve" smooth="yes"/>
      <point x="772.417910448" y="543.179104478"/>
      <point x="788.0" y="659.776119403"/>
      <point x="788" y="715" type="qcurve" smooth="yes"/>
      <point x="788" y="719" type="line" smooth="yes"/>
      <point x="788.0" y="853.328358209"/>
      <point x="682.298507463" y="985.0"/>
      <point x="592" y="985" type="qcurve" smooth="yes"/>
      <point x="460.656716418" y="985.0"/>
      <point x="277.044776119" y="744.925373134"/>
      <point x="236" y="580" type="qcurve" smooth="yes"/>
      <point x="218.835820896" y="515.820895522"/>
      <point x="203.0" y="399.223880597"/>
      <point x="203" y="344" type="qcurve" smooth="yes"/>
      <point x="203" y="340" type="line" smooth="yes"/>
      <point x="203.0" y="205.671641791"/>
      <point x="309.447761194" y="74.0"/>
      <point x="399" y="74" type="qcurve" smooth="yes"/>
      <point x="530.343283582" y="74.0"/>
      <point x="714.208955224" y="314.074626866"/>
    </contour>
  </outline>
</glyph>
<glyph name="r" format="1">
  <advance width="753.664"/>
  <unicode hex="0072"/>
  <outline>
    <contour>
      <point x="324" y="670" type="line"/>
      <point x="470.268656716" y="864.029850746"/>
      <point x="728.626865672" y="1074.01492537"/>
      <point x="854" y="1077" type="qcurve"/>
      <point x="817" y="934" type="line"/>
      <point x="684.164179104" y="922.059701493"/>
      <point x="417.835820896" y="716.940298507"/>
      <point x="285" y="555" type="qcurve"/>
      <point x="147" y="0" type="line"/>
      <point x="10" y="0" type="line"/>
      <point x="268" y="1030" type="line"/>
      <point x="414" y="1077" type="line"/>
      <point x="313" y="670" type="line"/>
    </contour>
  </outline>
</glyph>
<glyph name="u" format="1">
  <advance width="1001.472"/>
  <unicode hex="0075"/>
  <outline>
    <contour>
      <point x="854" y="1059" type="line"/>
      <point x="991" y="1059" type="line"/>
      <point x="733" y="27" type="line"/>
      <point x="588" y="-18" type="line"/>
      <point x="662" y="279" type="line"/>
      <point x="649" y="279" type="line"/>
      <point x="539.298507463" y="140.940298507"/>
      <point x="352.71641791" y="-10.0"/>
      <point x="246" y="-10" type="qcurve" smooth="yes"/>
      <point x="152.71641791" y="-10.0"/>
      <point x="59.0" y="87.671641791"/>
      <point x="59" y="172" type="qcurve" smooth="yes"/>
      <point x="59.0" y="198.119402985"/>
      <point x="69.0447761194" y="270.432835821"/>
      <point x="78" y="307" type="qcurve" smooth="yes"/>
      <point x="264" y="1059" type="line"/>
      <point x="401" y="1059" type="line"/>
      <point x="219" y="332" type="line" smooth="yes"/>
      <point x="211.537313433" y="301.402985075"/>
      <point x="203.0" y="238.134328358"/>
      <point x="203" y="215" type="qcurve" smooth="yes"/>
      <point x="203.0" y="158.28358209"/>
      <point x="258.552238806" y="94.0"/>
      <point x="319" y="94" type="qcurve" smooth="yes"/>
      <point x="388.402985075" y="94.0"/>
      <point x="572.597014925" y="240.552238806"/>
      <point x="692" y="401" type="qcurve"/>
    </contour>
  </outline>
</glyph>
<glyph name="y" format="1">
  <advance width="937.984"/>
  <unicode hex="0079"/>
  <outline>
    <contour>
      <point x="879" y="1059" type="line"/>
      <point x="1018" y="1059" type="line"/>
      <point x="307" y="-178" type="line" smooth="yes"/>
      <point x="233.865671642" y="-304.865671642"/>
      <point x="98.328358209" y="-395.0"/>
      <point x="14" y="-395" type="qcurve" smooth="yes"/>
      <point x="-50.1791044776" y="-395.0"/>
      <point x="-141.940298507" y="-370.149253731"/>
      <point x="-180" y="-350" type="qcurve"/>
      <point x="-154" y="-240" type="line"/>
      <point x="-109" y="-240" type="line"/>
      <point x="-91.8358208955" y="-275.074626866"/>
      <point x="-37.0149253731" y="-311.0"/>
      <point x="10" y="-311" type="qcurve" smooth="yes"/>
      <point x="51.7910447761" y="-311.0"/>
      <point x="129.970149254" y="-257.880597015"/>
      <point x="174" y="-184" type="qcurve" smooth="yes"/>
      <point x="270" y="-25" type="line"/>
      <point x="184" y="1059" type="line"/>
      <point x="319" y="1059" type="line"/>
      <point x="369" y="125" type="line"/>
    </contour>
  </outline>
</glyph>
<glyph name="braceleft" format="1">
  <advance width="784.384"/>
  <unicode hex="007B"/>
  <outline>
    <contour>
      <point x="774" y="1475" type="qcurve" smooth="yes"/>
      <point x="950" y="1475" type="line"/>
      <point x="932" y="1395" type="line"/>
      <point x="795" y="1395" type="line" smooth="yes"/>
      <point x="706.194029851" y="1395.0"/>
      <point x="603.910447761" y="1319.14925373"/>
      <point x="586" y="1249" type="qcurve" smooth="yes"/>
      <point x="565.850746269" y="1171.3880597"/>
      <point x="564.402985075" y="994.850746269"/>
      <point x="545" y="915" type="qcurve" smooth="yes"/>
      <point x="515.895522388" y="796.343283582"/>
      <point x="374.955223881" y="694.089552239"/>
      <point x="266" y="662" type="qcurve"/>
      <point x="262" y="645" type="line"/>
      <point x="344.835820896" y="618.880597015"/>
      <point x="422.0" y="540.134328358"/>
      <point x="422" y="467" type="qcurve" smooth="yes"/>
      <point x="422.0" y="363.268656716"/>
      <point x="287.0" y="113.28358209"/>
      <point x="287" y="20" type="qcurve" smooth="yes"/>
      <point x="287.0" y="-28.5074626866"/>
      <point x="355.850746269" y="-84.0"/>
      <point x="426" y="-84" type="qcurve" smooth="yes"/>
      <point x="561" y="-84" type="line"/>
      <point x="541" y="-164" type="line"/>
      <point x="375" y="-164" type="line" smooth="yes"/>
      <point x="267.537313433" y="-164.0"/>
      <point x="156.0" y="-79.8208955224"/>
      <point x="156" y="6" type="qcurve" smooth="yes"/>
      <point x="156.0" y="125.402985075"/>
      <point x="295.0" y="369.23880597"/>
      <point x="295" y="467" type="qcurve" smooth="yes"/>
      <point x="295.0" y="535.656716418"/>
      <point x="182.686567164" y="614.0"/>
      <point x="70" y="614" type="qcurve"/>
      <point x="88" y="696" type="line"/>
      <point x="202.925373134" y="696.0"/>
      <point x="380.388059701" y="790.791044776"/>
      <point x="408" y="899" type="qcurve" smooth="yes"/>
      <point x="424.417910448" y="969.149253731"/>
      <point x="432.850746269" y="1171.3880597"/>
      <point x="453" y="1249" type="qcurve" smooth="yes"/>
      <point x="479.865671642" y="1362.43283582"/>
      <point x="636.686567164" y="1475.0"/>
    </contour>
  </outline>
</glyph>
<glyph name="exclamdown" format="1">
  <advance width="495.616"/>
  <unicode hex="00A1"/>
  <outline>
    <contour>
      <point x="459" y="1489" type="qcurve" smooth="yes"/>
      <point x="501.537313433" y="1489.0"/>
      <point x="557.0" y="1431.53731343"/>
      <point x="557" y="1389" type="qcurve" smooth="yes"/>
      <point x="557.0" y="1345.71641791"/>
      <point x="501.537313433" y="1290.0"/>
      <point x="459" y="1290" type="qcurve" smooth="yes"/>
      <point x="414.223880597" y="1290.0"/>
      <point x="358.0" y="1345.71641791"/>
      <point x="358" y="1389" type="qcurve" smooth="yes"/>
      <point x="358.0" y="1431.53731343"/>
      <point x="414.223880597" y="1489.0"/>
    </contour>
    <contour>
      <point x="342" y="1051" type="line"/>
      <point x="414" y="1051" type="line"/>
      <point x="201" y="0" type="line"/>
      <point x="29" y="0" type="line"/>
    </contour>
  </outline>
</glyph>
<glyph name="section" format="1">
  <advance width="1185.792"/>
  <unicode hex="00A7"/>
  <outline>
    <contour>
      <point x="748" y="1499" type="qcurve" smooth="yes"/>
      <point x="882.328358209" y="1499.0"/>
      <point x="1110.20895522" y="1422.68656716"/>
      <point x="1202" y="1360" type="qcurve"/>
      <point x="1128" y="1262" type="line"/>
      <point x="1050.3880597" y="1319.46268657"/>
      <point x="844.492537313" y="1391.0"/>
      <point x="743" y="1391" type="qcurve" smooth="yes"/>
      <point x="633.298507463" y="1391.0"/>
      <point x="518.0" y="1311.14925373"/>
      <point x="518" y="1241" type="qcurve" smooth="yes"/>
      <point x="518.0" y="1179.80597015"/>
      <point x="644.582089552" y="1084.68656716"/>
      <point x="811" y="1022" type="qcurve" smooth="yes"/>
      <point x="1002.04477612" y="951.850746269"/>
      <point x="1159.0" y="809.805970149"/>
      <point x="1159" y="721" type="qcurve" smooth="yes"/>
      <point x="1159.0" y="604.582089552"/>
      <point x="937.313432836" y="447.805970149"/>
      <point x="750" y="459" type="qcurve"/>
      <point x="745" y="446" type="line"/>
      <point x="824.850746269" y="403.462686567"/>
      <point x="909.0" y="304.373134328"/>
      <point x="909" y="229" type="qcurve" smooth="yes"/>
      <point x="909.0" y="114.820895522"/>
      <point x="705.417910448" y="-25.0"/>
      <point x="539" y="-25" type="qcurve" smooth="yes"/>
      <point x="403.925373134" y="-25.0"/>
      <point x="177.791044776" y="52.3134328358"/>
      <point x="86" y="115" type="qcurve"/>
      <point x="160" y="213" type="line"/>
      <point x="237.611940299" y="154.791044776"/>
      <point x="444.253731343" y="84.0"/>
      <point x="545" y="84" type="qcurve" smooth="yes"/>
      <point x="653.208955224" y="84.0"/>
      <point x="770.0" y="162.850746269"/>
      <point x="770" y="233" type="qcurve" smooth="yes"/>
      <point x="770.0" y="294.194029851"/>
      <point x="641.417910448" y="390.313432836"/>
      <point x="475" y="453" type="qcurve" smooth="yes"/>
      <point x="285.447761194" y="523.149253731"/>
      <point x="129.0" y="665.194029851"/>
      <point x="129" y="754" type="qcurve" smooth="yes"/>
      <point x="129.0" y="869.671641791"/>
      <point x="350.940298507" y="1026.44776119"/>
      <point x="539" y="1016" type="qcurve"/>
      <point x="543" y="1028" type="line"/>
      <point x="463.149253731" y="1070.53731343"/>
      <point x="379.0" y="1170.37313433"/>
      <point x="379" y="1245" type="qcurve" smooth="yes"/>
      <point x="379.0" y="1359.92537313"/>
      <point x="582.328358209" y="1499.0"/>
    </contour>
    <contour>
      <point x="754" y="518" type="qcurve" smooth="yes"/>
      <point x="872.656716418" y="518.0"/>
      <point x="1022.0" y="618.388059701"/>
      <point x="1022" y="696" type="qcurve" smooth="yes"/>
      <point x="1022.0" y="746.746268657"/>
      <point x="932.343283582" y="847.776119403"/>
      <point x="801" y="903" type="qcurve" smooth="yes"/>
      <point x="747.268656716" y="924.641791045"/>
      <point x="600.671641791" y="956.0"/>
      <point x="535" y="956" type="qcurve" smooth="yes"/>
      <point x="415.597014925" y="956.0"/>
      <point x="266.0" y="856.358208955"/>
      <point x="266" y="778" type="qcurve" smooth="yes"/>
      <point x="266.0" y="728.0"/>
      <point x="355.656716418" y="626.223880597"/>
      <point x="487" y="571" type="qcurve" smooth="yes"/>
      <point x="540.731343284" y="550.104477612"/>
      <point x="688.328358209" y="518.0"/>
    </contour>
  </outline>
</glyph>
<glyph name="paragraph" format="1">
  <advance width="1081.344"/>
  <unicode hex="00B6"/>
  <outline>
    <contour>
      <point x="729" y="1475" type="qcurve" smooth="yes"/>
      <point x="1143" y="1475" type="line"/>
      <point x="776" y="0" type="line"/>
      <point x="682" y="0" type="line"/>
      <point x="1026" y="1389" type="line"/>
      <point x="821" y="1389" type="line"/>
      <point x="477" y="0" type="line"/>
      <point x="381" y="0" type="line"/>
      <point x="563" y="743" type="line"/>
      <point x="408.52238806" y="761.656716418"/>
      <point x="211.0" y="916.52238806"/>
      <point x="211" y="1071" type="qcurve" smooth="yes"/>
      <point x="211.0" y="1241.89552239"/>
      <point x="481.23880597" y="1475.0"/>
    </contour>
  </outline>
</glyph>
<glyph name="periodcentered" format="1">
  <advance width="380.928"/>
  <unicode hex="00B7"/>
  <outline>
    <contour>
      <point x="199" y="672" type="qcurve" smooth="yes"/>
      <point x="243.029850746" y="672.0"/>
      <point x="301.0" y="613.776119403"/>
      <point x="301" y="569" type="qcurve" smooth="yes"/>
      <point x="301.0" y="524.970149254"/>
      <point x="243.029850746" y="467.0"/>
      <point x="199" y="467" type="qcurve" smooth="yes"/>
      <point x="155.71641791" y="467.0"/>
      <point x="98.0" y="524.970149254"/>
      <point x="98" y="569" type="qcurve" smooth="yes"/>
      <point x="98.0" y="613.776119403"/>
      <point x="155.71641791" y="672.0"/>
    </contour>
  </outline>
</glyph>
<glyph name="ordmasculine" format="1">
  <advance width="774.144"/>
  <unicode hex="00BA"/>
  <outline>
    <contour>
      <point x="573" y="1489" type="qcurve" smooth="yes"/>
      <point x="675.985074627" y="1489.0"/>
      <point x="813.0" y="1362.37313433"/>
      <point x="813" y="1237" type="qcurve" smooth="yes"/>
      <point x="813.0" y="1064.6119403"/>
      <point x="618.910447761" y="756.0"/>
      <point x="451" y="756" type="qcurve" smooth="yes"/>
      <point x="348.014925373" y="756.0"/>
      <point x="211.0" y="884.119402985"/>
      <point x="211" y="1008" type="qcurve" smooth="yes"/>
      <point x="211.0" y="1180.3880597"/>
      <point x="405.089552239" y="1489.0"/>
    </contour>
    <contour>
      <point x="453" y="831" type="qcurve" smooth="yes"/>
      <point x="573.149253731" y="831.0"/>
      <point x="709.0" y="1103.17910448"/>
      <point x="709" y="1239" type="qcurve" smooth="yes"/>
      <point x="709.0" y="1327.80597015"/>
      <point x="632.194029851" y="1413.0"/>
      <point x="571" y="1413" type="qcurve" smooth="yes"/>
      <point x="450.850746269" y="1413.0"/>
      <point x="315.0" y="1142.32835821"/>
      <point x="315" y="1008" type="qcurve" smooth="yes"/>
      <point x="315.0" y="917.701492537"/>
      <point x="391.805970149" y="831.0"/>
    </contour>
    <contour>
      <point x="133" y="602" type="line"/>
      <point x="676" y="602" type="line"/>
      <point x="657" y="526" type="line"/>
      <point x="115" y="526" type="line"/>
    </contour>
  </outline>
</glyph>
<glyph name="questiondown" format="1">
  <advance width="905.216"/>
  <unicode hex="00BF"/>
  <outline>
    <contour>
      <point x="680" y="297" type="qcurve"/>
      <point x="778" y="236" type="line"/>
      <point x="692.925373134" y="112.119402985"/>
      <point x="478.865671642" y="-20.0"/>
      <point x="352" y="-20" type="qcurve" smooth="yes"/>
      <point x="202.746268657" y="-20.0"/>
      <point x="25.0" y="130.119402985"/>
      <point x="25" y="254" type="qcurve" smooth="yes"/>
      <point x="25.0" y="389.820895522"/>
      <point x="184.47761194" y="579.253731343"/>
      <point x="330" y="680" type="qcurve" smooth="yes"/>
      <point x="442.686567164" y="759.104477612"/>
      <point x="543.194029851" y="904.014925373"/>
      <point x="582" y="1057" type="qcurve"/>
      <point x="674" y="1057" type="line"/>
      <point x="638.925373134" y="862.970149254"/>
      <point x="526.850746269" y="686.298507463"/>
      <point x="397" y="596" type="qcurve" smooth="yes"/>
      <point x="296.253731343" y="527.343283582"/>
      <point x="168.0" y="368.23880597"/>
      <point x="168" y="266" type="qcurve" smooth="yes"/>
      <point x="168.0" y="179.432835821"/>
      <point x="283.179104478" y="94.0"/>
      <point x="369" y="94" type="qcurve" smooth="yes"/>
      <point x="460.791044776" y="94.0"/>
      <point x="606.865671642" y="191.776119403"/>
    </contour>
    <contour>
      <point x="698" y="1493" type="qcurve" smooth="yes"/>
      <point x="741.28358209" y="1493.0"/>
      <point x="799.0" y="1437.53731343"/>
      <point x="799" y="1395" type="qcurve" smooth="yes"/>
      <point x="799.0" y="1351.71641791"/>
      <point x="741.28358209" y="1294.0"/>
      <point x="698" y="1294" type="qcurve" smooth="yes"/>
      <point x="655.462686567" y="1294.0"/>
      <point x="598.0" y="1351.71641791"/>
      <point x="598" y="1395" type="qcurve" smooth="yes"/>
      <point x="598.0" y="1437.53731343"/>
      <point x="655.462686567" y="1493.0"/>
    </contour>
  </outline>
</glyph>
<glyph name="AE" format="1">
  <advance width="1875.968"/>
  <unicode hex="00C6"/>
  <outline>
    <contour>
      <point x="1036" y="1475" type="line"/>
      <point x="2005" y="1475" type="line"/>
      <point x="1976" y="1358" type="line"/>
      <point x="1294" y="1358" type="line"/>
      <point x="1161" y="827" type="line"/>
      <point x="1724" y="827" type="line"/>
      <point x="1698" y="715" type="line"/>
      <point x="1135" y="715" type="line"/>
      <point x="985" y="117" type="line"/>
      <point x="1692" y="117" type="line"/>
      <point x="1663" y="0" type="line"/>
      <point x="813" y="0" type="line"/>
      <point x="911" y="393" type="line"/>
      <point x="354" y="393" type="line"/>
      <point x="51" y="0" type="line"/>
      <point x="-106" y="0" type="line"/>
    </contour>
    <contour>
      <point x="938" y="500" type="line"/>
      <point x="1153" y="1358" type="line"/>
      <point x="1096" y="1358" type="line"/>
      <point x="430" y="500" type="line"/>
    </contour>
  </outline>
</glyph>
<glyph name="Eth" format="1">
  <advance width="1337.344"/>
  <unicode hex="00D0"/>
  <outline>
    <contour>
      <point x="1309" y="952" type="qcurve" smooth="yes"/>
      <point x="1309" y="946" type="line" smooth="yes"/>
      <point x="1309.0" y="880.328358209"/>
      <point x="1295.43283582" y="762.686567164"/>
      <point x="1282" y="700" type="qcurve" smooth="yes"/>
      <point x="1205.88059701" y="368.656716418"/>
      <point x="758.28358209" y="0.0"/>
      <point x="465" y="0" type="qcurve" smooth="yes"/>
      <point x="113" y="0" type="line"/>
      <point x="291" y="713" type="line"/>
      <point x="102" y="713" type="line"/>
      <point x="131" y="829" type="line"/>
      <point x="319" y="829" type="line"/>
      <point x="479" y="1475" type="line"/>
      <point x="766" y="1475" type="line" smooth="yes"/>
      <point x="1004.05970149" y="1475.0"/>
      <point x="1309.0" y="1218.41791045"/>
    </contour>
    <contour>
      <point x="1128" y="678" type="qcurve" smooth="yes"/>
      <point x="1143.67164179" y="736.208955224"/>
      <point x="1159.0" y="873.820895522"/>
      <point x="1159" y="938" type="qcurve" smooth="yes"/>
      <point x="1159" y="944" type="line" smooth="yes"/>
      <point x="1159.0" y="1150.71641791"/>
      <point x="931.343283582" y="1360.0"/>
      <point x="750" y="1360" type="qcurve" smooth="yes"/>
      <point x="592" y="1360" type="line"/>
      <point x="461" y="829" type="line"/>
      <point x="750" y="829" type="line"/>
      <point x="721" y="713" type="line"/>
      <point x="432" y="713" type="line"/>
      <point x="283" y="115" type="line"/>
      <point x="475" y="115" type="line" smooth="yes"/>
      <point x="699.626865672" y="115.0"/>
      <point x="1057.85074627" y="412.328358209"/>
    </contour>
  </outline>
</glyph>
<glyph name="germandbls" format="1">
  <advance width="1163.264"/>
  <unicode hex="00DF"/>
  <outline>
    <contour>
      <point x="780" y="1554" type="qcurve" smooth="yes"/>
      <point x="932.985074627" y="1554.0"/>
      <point x="1124.0" y="1401.85074627"/>
      <point x="1124" y="1272" type="qcurve" smooth="yes"/>
      <point x="1124.0" y="1097.37313433"/>
      <point x="894.865671642" y="893.52238806"/>
      <point x="768" y="848" type="qcurve"/>
      <point x="764" y="831" type="line"/>
      <point x="890.865671642" y="785.47761194"/>
      <point x="1057.0" y="572.029850746"/>
      <point x="1057" y="428" type="qcurve" smooth="yes"/>
      <point x="1057.0" y="222.029850746"/>
      <point x="789.611940299" y="-18.0"/>
      <point x="612" y="-18" type="qcurve" smooth="yes"/>
      <point x="515.731343284" y="-18.0"/>
      <point x="368.223880597" y="33.223880597"/>
      <point x="313" y="78" type="qcurve"/>
      <point x="369" y="162" type="line"/>
      <point x="419.0" y="123.940298507"/>
      <point x="529.373134328" y="80.0"/>
      <point x="604" y="80" type="qcurve" smooth="yes"/>
      <point x="735.343283582" y="80.0"/>
      <point x="920.0" y="268.537313433"/>
      <point x="920" y="426" type="qcurve" smooth="yes"/>
      <point x="920.0" y="566.298507463"/>
      <point x="736.074626866" y="771.895522388"/>
      <point x="551" y="801" type="qcurve"/>
      <point x="573" y="891" type="line"/>
      <point x="744.641791045" y="895.47761194"/>
      <point x="989.0" y="1108.70149254"/>
      <point x="989" y="1249" type="qcurve" smooth="yes"/>
      <point x="989.0" y="1348.25373134"/>
      <point x="864.23880597" y="1456.0"/>
      <point x="762" y="1456" type="qcurve" smooth="yes"/>
      <point x="641.104477612" y="1456.0"/>
      <point x="472.059701493" y="1311.47761194"/>
      <point x="434" y="1157" type="qcurve" smooth="yes"/>
      <point x="51" y="-385" type="line"/>
      <point x="-86" y="-385" type="line"/>
      <point x="297" y="1153" type="line" smooth="yes"/>
      <point x="349.23880597" y="1359.71641791"/>
      <point x="588.955223881" y="1554.0"/>
    </contour>
  </outline>
</glyph>
<glyph name="ae" format="1">
  <advance width="1538.048"/>
  <unicode hex="00E6"/>
  <outline>
    <contour>
      <point x="1202" y="1079" type="qcurve" smooth="yes"/>
      <point x="1360.95522388" y="1079.0"/>
      <point x="1485.0" y="862.850746269"/>
      <point x="1485" y="733" type="qcurve" smooth="yes"/>
      <point x="1485.0" y="681.507462687"/>
      <point x="1465.43283582" y="556.985074627"/>
      <point x="1452" y="504" type="qcurve"/>
      <point x="817" y="504" type="line"/>
      <point x="809.537313433" y="468.925373134"/>
      <point x="805.0" y="394.805970149"/>
      <point x="805" y="356" type="qcurve" smooth="yes"/>
      <point x="805" y="352" type="line" smooth="yes"/>
      <point x="805.0" y="223.641791045"/>
      <point x="915.253731343" y="80.0"/>
      <point x="1016" y="80" type="qcurve" smooth="yes"/>
      <point x="1095.10447761" y="80.0"/>
      <point x="1233.62686567" y="148.28358209"/>
      <point x="1309" y="205" type="qcurve"/>
      <point x="1350" y="119" type="line"/>
      <point x="1268.65671642" y="54.8208955224"/>
      <point x="1104.46268657" y="-20.0"/>
      <point x="997" y="-20" type="qcurve" smooth="yes"/>
      <point x="885.805970149" y="-20.0"/>
      <point x="728.089552239" y="96.5223880597"/>
      <point x="696" y="201" type="qcurve"/>
      <point x="684" y="201" type="line"/>
      <point x="549.671641791" y="77.1194029851"/>
      <point x="355.731343284" y="-16.0"/>
      <point x="252" y="-16" type="qcurve" smooth="yes"/>
      <point x="152.746268657" y="-16.0"/>
      <point x="18.0" y="102.28358209"/>
      <point x="18" y="209" type="qcurve" smooth="yes"/>
      <point x="18.0" y="389.597014925"/>
      <point x="360.52238806" y="626.492537313"/>
      <point x="715" y="625" type="qcurve"/>
      <point x="743" y="733" type="line" smooth="yes"/>
      <point x="751.208955224" y="760.611940299"/>
      <point x="756.0" y="807.597014925"/>
      <point x="756" y="827" type="qcurve" smooth="yes"/>
      <point x="756.0" y="900.880597015"/>
      <point x="666.791044776" y="969.0"/>
      <point x="575" y="969" type="qcurve" smooth="yes"/>
      <point x="498.880597015" y="969.0"/>
      <point x="374.0" y="934.044776119"/>
      <point x="274" y="893" type="qcurve"/>
      <point x="254" y="985" type="line"/>
      <point x="350.268656716" y="1026.04477612"/>
      <point x="507.223880597" y="1071.0"/>
      <point x="602" y="1071" type="qcurve" smooth="yes"/>
      <point x="728.865671642" y="1071.0"/>
      <point x="848.537313433" y="975.492537313"/>
      <point x="856" y="874" type="qcurve"/>
      <point x="866" y="874" type="line"/>
      <point x="933.164179104" y="965.791044776"/>
      <point x="1104.23880597" y="1079.0"/>
    </contour>
    <contour>
      <point x="674" y="348" type="line" smooth="yes"/>
      <point x="674.0" y="400.23880597"/>
      <point x="686.059701493" y="504.253731343"/>
      <point x="698" y="555" type="qcurve"/>
      <point x="394.268656716" y="556.492537313"/>
      <point x="154.0" y="354.880597015"/>
      <point x="154" y="231" type="qcurve" smooth="yes"/>
      <point x="154.0" y="157.865671642"/>
      <point x="242.850746269" y="76.0"/>
      <point x="313" y="76" type="qcurve" smooth="yes"/>
      <point x="380.164179104" y="76.0"/>
      <point x="548.149253731" y="158.641791045"/>
      <point x="678" y="287" type="qcurve"/>
      <point x="676.507462687" y="298.940298507"/>
      <point x="674.0" y="330.567164179"/>
      <point x="674" y="344" type="qcurve" smooth="yes"/>
    </contour>
    <contour>
      <point x="1339" y="584" type="line"/>
      <point x="1348.70149254" y="626.537313433"/>
      <point x="1358.0" y="697.925373134"/>
      <point x="1358" y="733" type="qcurve" smooth="yes"/>
      <point x="1358.0" y="835.23880597"/>
      <point x="1286.26865672" y="987.0"/>
      <point x="1190" y="987" type="qcurve" smooth="yes"/>
      <point x="1076.56716418" y="987.0"/>
      <point x="876.537313433" y="756.388059701"/>
      <point x="834" y="584" type="qcurve"/>
    </contour>
  </outline>
</glyph>
<glyph name="ccedilla" format="1">
  <advance width="901.12"/>
  <unicode hex="00E7"/>
  <outline>
    <contour>
      <point x="602" y="1079" type="qcurve" smooth="yes"/>
      <point x="739.313432836" y="1079.0"/>
      <point x="877.835820896" y="918.880597015"/>
      <point x="895" y="795" type="qcurve"/>
      <point x="772" y="768" type="line"/>
      <point x="758.567164179" y="867.253731343"/>
      <point x="676.805970149" y="981.0"/>
      <point x="588" y="981" type="qcurve" smooth="yes"/>
      <point x="461.134328358" y="981.0"/>
      <point x="280.029850746" y="748.417910448"/>
      <point x="236" y="582" type="qcurve" smooth="yes"/>
      <point x="218.835820896" y="519.313432836"/>
      <point x="201.0" y="400.71641791"/>
      <point x="201" y="344" type="qcurve" smooth="yes"/>
      <point x="201" y="340" type="line" smooth="yes"/>
      <point x="201.0" y="207.164179104"/>
      <point x="317.701492537" y="76.0"/>
      <point x="408" y="76" type="qcurve" smooth="yes"/>
      <point x="482.626865672" y="76.0"/>
      <point x="608.328358209" y="173.194029851"/>
      <point x="674" y="262" type="qcurve"/>
      <point x="776" y="213" type="line"/>
      <point x="701.373134328" y="106.28358209"/>
      <point x="517.925373134" y="-17.0149253731"/>
      <point x="403" y="-20" type="qcurve"/>
      <point x="317" y="-121" type="line"/>
      <point x="338.641791045" y="-115.029850746"/>
      <point x="384.865671642" y="-109.0"/>
      <point x="408" y="-109" type="qcurve" smooth="yes"/>
      <point x="465.462686567" y="-109.0"/>
      <point x="539.0" y="-161.746268657"/>
      <point x="539" y="-211" type="qcurve" smooth="yes"/>
      <point x="539.0" y="-296.820895522"/>
      <point x="359.0" y="-389.0"/>
      <point x="209" y="-389" type="qcurve" smooth="yes"/>
      <point x="173.925373134" y="-389.0"/>
      <point x="94.0746268657" y="-385.47761194"/>
      <point x="59" y="-381" type="qcurve"/>
      <point x="74" y="-332" type="line"/>
      <point x="100.119402985" y="-334.985074627"/>
      <point x="152.865671642" y="-340.0"/>
      <point x="176" y="-340" type="qcurve" smooth="yes"/>
      <point x="298.388059701" y="-340.0"/>
      <point x="422.0" y="-284.029850746"/>
      <point x="422" y="-240" type="qcurve" smooth="yes"/>
      <point x="422.0" y="-210.895522388"/>
      <point x="379.074626866" y="-180.0"/>
      <point x="344" y="-180" type="qcurve" smooth="yes"/>
      <point x="314.895522388" y="-180.0"/>
      <point x="261.089552239" y="-192.313432836"/>
      <point x="229" y="-205" type="qcurve"/>
      <point x="190" y="-174" type="line"/>
      <point x="332" y="-16" type="line"/>
      <point x="217.074626866" y="3.40298507463"/>
      <point x="68.0" y="186.537313433"/>
      <point x="68" y="344" type="qcurve" smooth="yes"/>
      <point x="68" y="348" type="line" smooth="yes"/>
      <point x="68.0" y="401.731343284"/>
      <point x="82.5671641791" y="519.029850746"/>
      <point x="96" y="575" type="qcurve" smooth="yes"/>
      <point x="148.23880597" y="778.731343284"/>
      <point x="404.985074627" y="1079.0"/>
    </contour>
  </outline>
</glyph>
<glyph name="eth" format="1">
  <advance width="1011.712"/>
  <unicode hex="00F0"/>
  <outline>
    <contour>
      <point x="840" y="1442" type="qcurve"/>
      <point x="1083" y="1561" type="line"/>
      <point x="1063" y="1475" type="line"/>
      <point x="874" y="1382" type="line"/>
      <point x="921.76119403" y="1285.73134328"/>
      <point x="971.0" y="1076.19402985"/>
      <point x="971" y="965" type="qcurve" smooth="yes"/>
      <point x="971" y="961" type="line" smooth="yes"/>
      <point x="971.0" y="863.985074627"/>
      <point x="939.089552239" y="654.358208955"/>
      <point x="907" y="526" type="qcurve" smooth="yes"/>
      <point x="836.850746269" y="251.373134328"/>
      <point x="559.417910448" y="-20.0"/>
      <point x="393" y="-20" type="qcurve" smooth="yes"/>
      <point x="249.71641791" y="-20.0"/>
      <point x="68.0" y="166.388059701"/>
      <point x="68" y="344" type="qcurve" smooth="yes"/>
      <point x="68" y="348" type="line" smooth="yes"/>
      <point x="68.0" y="400.23880597"/>
      <point x="80.5671641791" y="512.52238806"/>
      <point x="94" y="567" type="qcurve" smooth="yes"/>
      <point x="144.746268657" y="773.71641791"/>
      <point x="399.910447761" y="1075.0"/>
      <point x="582" y="1075" type="qcurve" smooth="yes"/>
      <point x="696.179104478" y="1075.0"/>
      <point x="829.850746269" y="924.910447761"/>
      <point x="850" y="807" type="qcurve"/>
      <point x="862" y="807" type="line"/>
      <point x="879.164179104" y="968.940298507"/>
      <point x="828.208955224" y="1228.79104478"/>
      <point x="770" y="1337" type="qcurve"/>
      <point x="500" y="1204" type="line"/>
      <point x="522" y="1290" type="line"/>
      <point x="731" y="1395" type="line"/>
      <point x="711.597014925" y="1427.08955224"/>
      <point x="662.611940299" y="1490.89552239"/>
      <point x="635" y="1520" type="qcurve"/>
      <point x="760" y="1561" type="line"/>
      <point x="780.895522388" y="1531.89552239"/>
      <point x="821.343283582" y="1471.10447761"/>
    </contour>
    <contour>
      <point x="756" y="479" type="qcurve" smooth="yes"/>
      <point x="772.417910448" y="543.179104478"/>
      <point x="788.0" y="659.776119403"/>
      <point x="788" y="715" type="qcurve" smooth="yes"/>
      <point x="788" y="719" type="line" smooth="yes"/>
      <point x="788.0" y="853.328358209"/>
      <point x="682.298507463" y="985.0"/>
      <point x="592" y="985" type="qcurve" smooth="yes"/>
      <point x="460.656716418" y="985.0"/>
      <point x="277.044776119" y="744.925373134"/>
      <point x="236" y="580" type="qcurve" smooth="yes"/>
      <point x="218.835820896" y="515.820895522"/>
      <point x="203.0" y="399.223880597"/>
      <point x="203" y="344" type="qcurve" smooth="yes"/>
      <point x="203" y="340" type="line" smooth="yes"/>
      <point x="203.0" y="205.671641791"/>
      <point x="309.447761194" y="74.0"/>
      <point x="399" y="74" type="qcurve" smooth="yes"/>
      <point x="530.343283582" y="74.0"/>
      <point x="714.208955224" y="314.074626866"/>
    </contour>
  </outline>
</glyph>
<glyph name="dotlessi" format="1">
  <advance width="458.752"/>
  <unicode hex="0131"/>
  <outline>
    <contour>
      <point x="293" y="1059" type="line"/>
      <point x="430" y="1059" type="line"/>
      <point x="166" y="0" type="line"/>
      <point x="29" y="0" type="line"/>
    </contour>
  </outline>
</glyph>
<glyph name="Lslash" format="1">
  <advance width="1110.016"/>
  <unicode hex="0141"/>
  <outline>
    <contour>
      <point x="287" y="121" type="line"/>
      <point x="973" y="121" type="line"/>
      <point x="942" y="0" type="line"/>
      <point x="113" y="0" type="line"/>
      <point x="279" y="670" type="line"/>
      <point x="70" y="582" type="line"/>
      <point x="102" y="709" type="line"/>
      <point x="309" y="795" type="line"/>
      <point x="479" y="1475" type="line"/>
      <point x="625" y="1475" type="line"/>
      <point x="471" y="858" type="line"/>
      <point x="807" y="997" type="line"/>
      <point x="776" y="870" type="line"/>
      <point x="440" y="733" type="line"/>
    </contour>
  </outline>
</glyph>
<glyph name="oe" format="1">
  <advance width="1613.824"/>
  <unicode hex="0153"/>
  <outline>
    <contour>
      <point x="1278" y="1079" type="qcurve" smooth="yes"/>
      <point x="1435.46268657" y="1079.0"/>
      <point x="1561.0" y="862.850746269"/>
      <point x="1561" y="733" type="qcurve" smooth="yes"/>
      <point x="1561.0" y="681.507462687"/>
      <point x="1542.92537313" y="556.985074627"/>
      <point x="1528" y="504" type="qcurve"/>
      <point x="895" y="504" type="line"/>
      <point x="889.029850746" y="468.925373134"/>
      <point x="883.0" y="394.805970149"/>
      <point x="883" y="356" type="qcurve" smooth="yes"/>
      <point x="883" y="352" type="line" smooth="yes"/>
      <point x="883.0" y="220.656716418"/>
      <point x="996.776119403" y="80.0"/>
      <point x="1102" y="80" type="qcurve" smooth="yes"/>
      <point x="1172.14925373" y="80.0"/>
      <point x="1309.88059701" y="148.28358209"/>
      <point x="1386" y="205" type="qcurve"/>
      <point x="1425" y="119" type="line"/>
      <point x="1344.40298507" y="54.8208955224"/>
      <point x="1185.0" y="-20.0"/>
      <point x="1085" y="-20" type="qcurve" smooth="yes"/>
      <point x="961.865671642" y="-20.0"/>
      <point x="808.940298507" y="135.985074627"/>
      <point x="797" y="283" type="qcurve"/>
      <point x="778" y="283" type="line"/>
      <point x="715.313432836" y="154.641791045"/>
      <point x="510.820895522" y="-20.0"/>
      <point x="375" y="-20" type="qcurve" smooth="yes"/>
      <point x="248.134328358" y="-20.0"/>
      <point x="68.0" y="166.388059701"/>
      <point x="68" y="344" type="qcurve" smooth="yes"/>
      <point x="68" y="348" type="line" smooth="yes"/>
      <point x="68.0" y="400.23880597"/>
      <point x="80.5671641791" y="514.014925373"/>
      <point x="94" y="567" type="qcurve" smooth="yes"/>
      <point x="146.23880597" y="776.701492537"/>
      <point x="406.388059701" y="1079.0"/>
      <point x="584" y="1079" type="qcurve" smooth="yes"/>
      <point x="710.865671642" y="1079.0"/>
      <point x="864.313432836" y="916.537313433"/>
      <point x="877" y="774" type="qcurve"/>
      <point x="889" y="774" type="line"/>
      <point x="956.164179104" y="911.313432836"/>
      <point x="1154.11940299" y="1079.0"/>
    </contour>
    <contour>
      <point x="756" y="479" type="qcurve" smooth="yes"/>
      <point x="772.417910448" y="543.179104478"/>
      <point x="788.0" y="659.776119403"/>
      <point x="788" y="715" type="qcurve" smooth="yes"/>
      <point x="788" y="719" type="line" smooth="yes"/>
      <point x="788.0" y="847.358208955"/>
      <point x="677.28358209" y="985.0"/>
      <point x="584" y="985" type="qcurve" smooth="yes"/>
      <point x="461.611940299" y="985.0"/>
      <point x="278.537313433" y="747.910447761"/>
      <point x="236" y="580" type="qcurve" smooth="yes"/>
      <point x="218.835820896" y="515.820895522"/>
      <point x="203.0" y="399.223880597"/>
      <point x="203" y="344" type="qcurve" smooth="yes"/>
      <point x="203" y="340" type="line" smooth="yes"/>
      <point x="203.0" y="205.671641791"/>
      <point x="309.388059701" y="74.0"/>
      <point x="387" y="74" type="qcurve" smooth="yes"/>
      <point x="518.343283582" y="74.0"/>
      <point x="714.208955224" y="314.074626866"/>
    </contour>
    <contour>
      <point x="1417" y="584" type="line"/>
      <point x="1426.70149254" y="626.537313433"/>
      <point x="1434.0" y="697.925373134"/>
      <point x="1434" y="733" type="qcurve" smooth="yes"/>
      <point x="1434.0" y="835.23880597"/>
      <point x="1359.25373134" y="987.0"/>
      <point x="1260" y="987" type="qcurve" smooth="yes"/>
      <point x="1152.53731343" y="987.0"/>
      <point x="954.28358209" y="756.388059701"/>
      <point x="911" y="584" type="qcurve"/>
    </contour>
  </outline>
</glyph>
<glyph name="caron" format="1">
  <advance width="1024.0"/>
  <unicode hex="02C7"/>
  <outline>
    <contour>
      <point x="991" y="1536" type="line"/>
      <point x="1075" y="1536" type="line"/>
      <point x="741" y="1212" type="line"/>
      <point x="618" y="1212" type="line"/>
      <point x="444" y="1536" type="line"/>
      <point x="516" y="1536" type="line"/>
      <point x="700" y="1319" type="line"/>
    </contour>
  </outline>
</glyph>
<glyph name="breve" format="1">
  <advance width="1024.0"/>
  <unicode hex="02D8"/>
  <outline>
    <contour>
      <point x="979" y="1536" type="qcurve"/>
      <point x="1059" y="1536" type="line"/>
      <point x="1012.73134328" y="1380.02985075"/>
      <point x="826.805970149" y="1206.0"/>
      <point x="688" y="1206" type="qcurve" smooth="yes"/>
      <point x="570.089552239" y="1206.0"/>
      <point x="444.0" y="1334.05970149"/>
      <point x="444" y="1446" type="qcurve" smooth="yes"/>
      <point x="444.0" y="1467.64179104"/>
      <point x="450.52238806" y="1512.86567164"/>
      <point x="455" y="1536" type="qcurve"/>
      <point x="530" y="1536" type="line"/>
      <point x="528.507462687" y="1525.55223881"/>
      <point x="526.0" y="1503.95522388"/>
      <point x="526" y="1495" type="qcurve" smooth="yes"/>
      <point x="526.0" y="1401.71641791"/>
      <point x="621.686567164" y="1313.0"/>
      <point x="709" y="1313" type="qcurve" smooth="yes"/>
      <point x="805.268656716" y="1313.0"/>
      <point x="936.462686567" y="1426.29850746"/>
    </contour>
  </outline>
</glyph>
<glyph name="dotaccent" format="1">
  <advance width="1024.0"/>
  <unicode hex="02D9"/>
  <outline>
    <contour>
      <point x="645" y="1391" type="line"/>
      <point x="803" y="1391" type="line"/>
      <point x="760" y="1212" type="line"/>
      <point x="602" y="1212" type="line"/>
    </contour>
  </outline>
</glyph>
<glyph name="ring" format="1">
  <advance width="1024.0"/>
  <unicode hex="02DA"/>
  <outline>
    <contour>
      <point x="721" y="1567" type="qcurve" smooth="yes"/>
      <point x="806.820895522" y="1567.0"/>
      <point x="918.0" y="1461.85074627"/>
      <point x="918" y="1382" type="qcurve" smooth="yes"/>
      <point x="918.0" y="1302.89552239"/>
      <point x="806.820895522" y="1198.0"/>
      <point x="721" y="1198" type="qcurve" smooth="yes"/>
      <point x="633.686567164" y="1198.0"/>
      <point x="524.0" y="1302.89552239"/>
      <point x="524" y="1382" type="qcurve" smooth="yes"/>
      <point x="524.0" y="1461.85074627"/>
      <point x="633.686567164" y="1567.0"/>
    </contour>
    <contour>
      <point x="721" y="1264" type="qcurve" smooth="yes"/>
      <point x="769.507462687" y="1264.0"/>
      <point x="834.0" y="1330.50746269"/>
      <point x="834" y="1382" type="qcurve" smooth="yes"/>
      <point x="834.0" y="1434.23880597"/>
      <point x="769.507462687" y="1501.0"/>
      <point x="721" y="1501" type="qcurve" smooth="yes"/>
      <point x="671.746268657" y="1501.0"/>
      <point x="606.0" y="1434.23880597"/>
      <point x="606" y="1382" type="qcurve" smooth="yes"/>
      <point x="606.0" y="1330.50746269"/>
      <point x="670.253731343" y="1264.0"/>
    </contour>
  </outline>
</glyph>
<glyph name="ogonek" format="1">
  <advance width="1024.0"/>
  <unicode hex="02DB"/>
  <outline>
    <contour>
      <point x="539" y="-268" type="qcurve"/>
      <point x="549" y="-317" type="line"/>
      <point x="480.343283582" y="-352.820895522"/>
      <point x="351.23880597" y="-389.0"/>
      <point x="299" y="-389" type="qcurve" smooth="yes"/>
      <point x="211.686567164" y="-389.0"/>
      <point x="115.0" y="-317.194029851"/>
      <point x="115" y="-256" type="qcurve" smooth="yes"/>
      <point x="115.0" y="-197.791044776"/>
      <point x="229.134328358" y="-65.671641791"/>
      <point x="356" y="0" type="qcurve"/>
      <point x="442" y="0" type="line"/>
      <point x="332.298507463" y="-67.1641791045"/>
      <point x="238.0" y="-188.462686567"/>
      <point x="238" y="-231" type="qcurve" smooth="yes"/>
      <point x="238.0" y="-269.805970149"/>
      <point x="297.492537313" y="-313.0"/>
      <point x="346" y="-313" type="qcurve" smooth="yes"/>
      <point x="393.76119403" y="-313.0"/>
      <point x="482.28358209" y="-289.641791045"/>
    </contour>
  </outline>
</glyph>
<glyph name="hungarumlaut" format="1">
  <advance width="1024.0"/>
  <unicode hex="02DD"/>
  <outline>
    <contour>
      <point x="575" y="1522" type="line"/>
      <point x="762" y="1522" type="line"/>
      <point x="416" y="1212" type="line"/>
      <point x="324" y="1212" type="line"/>
    </contour>
    <contour>
      <point x="930" y="1522" type="line"/>
      <point x="1116" y="1522" type="line"/>
      <point x="770" y="1212" type="line"/>
      <point x="678" y="1212" type="line"/>
    </contour>
  </outline>
</glyph>
<glyph name="daggerdbl" format="1">
  <advance width="948.224"/>
  <unicode hex="2021"/>
  <outline>
    <contour>
      <point x="651" y="1077" type="line"/>
      <point x="997" y="1114" type="line"/>
      <point x="967" y="993" type="line"/>
      <point x="637" y="1028" type="line"/>
      <point x="600" y="737" type="line"/>
      <point x="494" y="446" type="line"/>
      <point x="840" y="481" type="line"/>
      <point x="809" y="360" type="line"/>
      <point x="479" y="397" type="line"/>
      <point x="420" y="0" type="line"/>
      <point x="264" y="0" type="line"/>
      <point x="401" y="397" type="line"/>
      <point x="53" y="360" type="line"/>
      <point x="84" y="481" type="line"/>
      <point x="414" y="446" type="line"/>
      <point x="451" y="737" type="line"/>
      <point x="559" y="1028" type="line"/>
      <point x="211" y="993" type="line"/>
      <point x="242" y="1114" type="line"/>
      <point x="571" y="1077" type="line"/>
      <point x="633" y="1475" type="line"/>
      <point x="788" y="1475" type="line"/>
    </contour>
  </outline>
</glyph>
<glyph name="ellipsis" format="1">
  <advance width="1206.272"/>
  <unicode hex="2026"/>
  <outline>
    <contour>
      <point x="82" y="184" type="qcurve" smooth="yes"/>
      <point x="124.537313433" y="184.0"/>
      <point x="180.0" y="128.537313433"/>
      <point x="180" y="86" type="qcurve" smooth="yes"/>
      <point x="180.0" y="43.4626865672"/>
      <point x="124.537313433" y="-14.0"/>
      <point x="82" y="-14" type="qcurve" smooth="yes"/>
      <point x="39.4626865672" y="-14.0"/>
      <point x="-18.0" y="43.4626865672"/>
      <point x="-18" y="86" type="qcurve" smooth="yes"/>
      <point x="-18.0" y="128.537313433"/>
      <point x="39.4626865672" y="184.0"/>
    </contour>
    <contour>
      <point x="496" y="184" type="qcurve" smooth="yes"/>
      <point x="538.537313433" y="184.0"/>
      <point x="596.0" y="128.537313433"/>
      <point x="596" y="86" type="qcurve" smooth="yes"/>
      <point x="596.0" y="43.4626865672"/>
      <point x="538.537313433" y="-14.0"/>
      <point x="496" y="-14" type="qcurve" smooth="yes"/>
      <point x="452.71641791" y="-14.0"/>
      <point x="395.0" y="43.4626865672"/>
      <point x="395" y="86" type="qcurve" smooth="yes"/>
      <point x="395.0" y="128.537313433"/>
      <point x="452.71641791" y="184.0"/>
    </contour>
    <contour>
      <point x="911" y="184" type="qcurve" smooth="yes"/>
      <point x="954.28358209" y="184.0"/>
      <point x="1010.0" y="128.537313433"/>
      <point x="1010" y="86" type="qcurve" smooth="yes"/>
      <point x="1010.0" y="43.4626865672"/>
      <point x="954.28358209" y="-14.0"/>
      <point x="911" y="-14" type="qcurve" smooth="yes"/>
      <point x="866.970149254" y="-14.0"/>
      <point x="811.0" y="43.4626865672"/>
      <point x="811" y="86" type="qcurve" smooth="yes"/>
      <point x="811.0" y="128.537313433"/>
      <point x="866.970149254" y="184.0"/>
    </contour>
  </outline>
</glyph>
<glyph name="guilsinglleft" format="1">
  <advance width="542.72"/>
  <unicode hex="2039"/>
  <outline>
    <contour>
      <point x="469" y="899" type="line"/>
      <point x="567" y="899" type="line"/>
      <point x="213" y="520" type="line"/>
      <point x="375" y="160" type="line"/>
      <point x="289" y="160" type="line"/>
      <point x="57" y="528" type="line"/>
    </contour>
  </outline>
</glyph>
<glyph name="guilsinglright" format="1">
  <advance width="542.72"/>
  <unicode hex="203A"/>
  <outline>
    <contour>
      <point x="252" y="899" type="line"/>
      <point x="483" y="528" type="line"/>
      <point x="72" y="160" type="line"/>
      <point x="-27" y="160" type="line"/>
      <point x="328" y="539" type="line"/>
      <point x="166" y="899" type="line"/>
    </contour>
  </outline>
</glyph>
<glyph name="radical" format="1">
  <advance width="1150.976"/>
  <unicode hex="221A"/>
  <outline>
    <contour>
      <point x="1151" y="1475" type="line"/>
      <point x="1307" y="1475" type="line"/>
      <point x="449" y="-6" type="line"/>
      <point x="305" y="-6" type="line"/>
      <point x="133" y="696" type="line"/>
      <point x="274" y="696" type="line"/>
      <point x="399" y="119" type="line"/>
    </contour>
  </outline>
</glyph>
<glyph name="fl" format="1">
  <advance width="1122.304"/>
  <unicode hex="FB02"/>
  <outline>
    <contour>
      <point x="743" y="1554" type="qcurve" smooth="yes"/>
      <point x="799.71641791" y="1554.0"/>
      <point x="900.417910448" y="1530.92537313"/>
      <point x="934" y="1516" type="qcurve"/>
      <point x="905" y="1409" type="line"/>
      <point x="875.895522388" y="1426.1641791"/>
      <point x="795.71641791" y="1456.0"/>
      <point x="739" y="1456" type="qcurve" smooth="yes"/>
      <point x="676.313432836" y="1456.0"/>
      <point x="586.134328358" y="1374.7761194"/>
      <point x="563" y="1280" type="qcurve" smooth="yes"/>
      <point x="506" y="1049" type="line"/>
      <point x="770" y="1049" type="line"/>
      <point x="745" y="950" type="line"/>
      <point x="481" y="950" type="line"/>
      <point x="152" y="-385" type="line"/>
      <point x="14" y="-385" type="line"/>
      <point x="348" y="950" type="line"/>
      <point x="137" y="950" type="line"/>
      <point x="162" y="1049" type="line"/>
      <point x="373" y="1049" type="line"/>
      <point x="432" y="1290" type="line" smooth="yes"/>
      <point x="465.582089552" y="1429.55223881"/>
      <point x="621.358208955" y="1554.0"/>
    </contour>
    <contour>
      <point x="1069" y="1511" type="line"/>
      <point x="1214" y="1559" type="line"/>
      <point x="829" y="0" type="line"/>
      <point x="692" y="0" type="line"/>
    </contour>
  </outline>
</glyph>
<glyph name="macron" format="1">
  <advance width="1024.0"/>
  <outline>
    <contour>
      <point x="442" y="1401" type="line"/>
      <point x="1012" y="1401" type="line"/>
      <point x="985" y="1292" type="line"/>
      <point x="416" y="1292" type="line"/>
    </contour>
  </outline>
</glyph>
